<?xml version="1.0" encoding="UTF-8" standalone="no"?>
<!-- Created with Inkscape (http://www.inkscape.org/) -->

<svg
   width="256"
   height="256"
   viewBox="0 0 67.733332 67.733333"
   version="1.1"
   id="svg1798"
   inkscape:version="1.2.1 (9c6d41e410, 2022-07-14)"
   sodipodi:docname="b.svg"
   xmlns:inkscape="http://www.inkscape.org/namespaces/inkscape"
   xmlns:sodipodi="http://sodipodi.sourceforge.net/DTD/sodipodi-0.dtd"
   xmlns="http://www.w3.org/2000/svg"
   xmlns:svg="http://www.w3.org/2000/svg">
  <sodipodi:namedview
     id="namedview1800"
     pagecolor="#ffffff"
     bordercolor="#666666"
     borderopacity="1.0"
     inkscape:showpageshadow="2"
     inkscape:pageopacity="0.0"
     inkscape:pagecheckerboard="0"
     inkscape:deskcolor="#d1d1d1"
     inkscape:document-units="px"
     showgrid="false"
     inkscape:zoom="1.1893044"
     inkscape:cx="-186.66373"
     inkscape:cy="156.39394"
     inkscape:window-width="1920"
     inkscape:window-height="1009"
     inkscape:window-x="-8"
     inkscape:window-y="-8"
     inkscape:window-maximized="1"
     inkscape:current-layer="layer1" />
  <defs
     id="defs1795">
    <filter
       inkscape:collect="always"
       style="color-interpolation-filters:sRGB"
       id="filter4881"
       x="-0.054963383"
       y="-0.040366525"
       width="1.1099268"
       height="1.0807331">
      <feGaussianBlur
         inkscape:collect="always"
         stdDeviation="1.2813625"
         id="feGaussianBlur4883" />
    </filter>
  </defs>
  <g
     inkscape:label="Layer 1"
     inkscape:groupmode="layer"
     id="layer1">
    <g
       id="g38721"
       transform="matrix(0.50000003,0,0,0.4999988,194.4066,279.61014)"
       inkscape:export-filename="ranking-B.png"
       inkscape:export-xdpi="96"
       inkscape:export-ydpi="96">
      <rect
         style="fill:#0000ff;fill-opacity:0;fill-rule:evenodd;stroke-width:0.208134"
         id="rect37148"
         width="135.46666"
         height="135.46666"
         x="-388.81317"
         y="-559.22162" />
      <g
         id="g37146"
         transform="matrix(1.5221341,0,0,1.645316,-421.5652,-309.30406)">
        <g
           aria-label="B"
           id="text4879"
           style="font-size:94.9861px;font-family:Comfortaa;-inkscape-font-specification:'Comfortaa, @wght=700';font-variation-settings:'wght' 700;fill:none;stroke:#2d60d6;stroke-width:2;paint-order:stroke fill markers;filter:url(#filter4881)">
          <path
             style="color:#000000;-inkscape-font-specification:'Comfortaa, @wght=700';fill:#2d60d6;stroke:none;-inkscape-stroke:none"
             d="m 43.978516,-148.82031 c -1.612992,0 -3.082316,0.59231 -4.203125,1.70508 -1.142638,1.07223 -1.734375,2.56565 -1.734375,4.23437 v 64.304688 c 0,1.620401 0.594089,3.097995 1.716796,4.220703 1.122709,1.122708 2.600303,1.71875 4.220704,1.71875 h 24.697265 c 4.882633,0 9.262775,-0.980409 13.091797,-2.960937 l 0.0059,-0.0039 0.0059,-0.0039 c 3.813448,-2.038222 6.81177,-4.831743 8.93164,-8.341797 2.188884,-3.5194 3.28125,-7.580537 3.28125,-12.105468 0,-4.988069 -1.331726,-9.153209 -4.037109,-12.332039 -2.245561,-2.63853 -5.256917,-4.38099 -8.701172,-5.55078 2.21742,-1.39246 4.150658,-3.03373 5.539063,-5.11523 l 0.002,-0.004 c 1.814026,-2.68898 2.732422,-5.72472 2.732422,-9.00976 0,-4.02288 -1.000469,-7.64755 -3.001953,-10.78711 -1.93198,-3.12916 -4.650795,-5.575 -8.087891,-7.29492 -3.388676,-1.79059 -7.323804,-2.67383 -11.755859,-2.67383 z m 0,2 h 22.703125 c 4.173679,0 7.766886,0.82351 10.833984,2.44726 l 0.01172,0.006 0.0098,0.006 c 3.143778,1.57189 5.551607,3.74541 7.291016,6.56446 l 0.0039,0.006 0.0039,0.006 c 1.794156,2.81085 2.691407,6.02188 2.691407,9.72071 0,2.9192 -0.788768,5.51851 -2.392578,7.89453 l -0.002,0.002 -0.002,0.004 c -1.545768,2.31865 -3.675033,4.15978 -6.453125,5.54883 l -2.445312,1.22265 2.65625,0.64258 c 4.006452,0.97126 7.149649,2.84996 9.542969,5.66211 2.360537,2.77363 3.560547,6.39797 3.560546,11.035156 10e-7,4.209936 -0.997601,7.867714 -2.984375,11.058593 l -0.002,0.0059 -0.0039,0.0059 c -1.931867,3.199654 -4.631345,5.72226 -8.160156,7.609375 -3.514924,1.81651 -7.553114,2.736328 -12.166016,2.736328 H 43.978516 c -1.165856,0 -2.029629,-0.355801 -2.806641,-1.132812 -0.777012,-0.777012 -1.130859,-1.640785 -1.130859,-2.806641 v -64.304689 c 0,-1.23906 0.355302,-2.085 1.105468,-2.78516 l 0.01367,-0.0117 0.01172,-0.0117 c 0.777012,-0.77701 1.640785,-1.13086 2.806641,-1.13086 z m 3.939453,7.11719 v 23.37304 h 1 17.763672 c 3.769747,0 6.95887,-0.94067 9.439453,-2.86719 2.600364,-1.97024 3.908203,-5.04354 3.908203,-8.86718 0,-3.81749 -1.307876,-6.86535 -3.910156,-8.77344 -2.48029,-1.92544 -5.668794,-2.86524 -9.4375,-2.86523 z m 2,2 h 16.763672 c 3.445724,-10e-6 6.140977,0.83316 8.21875,2.44921 l 0.01172,0.01 0.01367,0.01 c 2.072312,1.51222 3.103516,3.77682 3.103516,7.16992 0,3.39309 -1.03457,5.70131 -3.117188,7.27734 l -0.0059,0.004 -0.0059,0.004 c -2.077773,1.61605 -4.773025,2.44922 -8.21875,2.44922 h -16.76359 z m -2,28.49218 v 27.455081 h 1 19.757812 c 3.028846,0 5.742377,-0.527319 8.109375,-1.609375 2.372934,-1.08477 4.280384,-2.711548 5.648438,-4.832032 1.388634,-2.152383 2.060547,-4.797637 2.060547,-7.855468 0,-2.877972 -0.67873,-5.356086 -2.085938,-7.326176 -1.380206,-1.93228 -3.297206,-3.38642 -5.664062,-4.33398 -2.357812,-1.00707 -5.054537,-1.49805 -8.06836,-1.49805 z m 2,2 h 18.757812 c 2.804209,0 5.230236,0.45638 7.300781,1.34375 l 0.0098,0.004 0.01172,0.004 c 2.063881,0.82556 3.629315,2.02988 4.78125,3.64258 1.125752,1.57606 1.714844,3.596172 1.714844,6.164066 0,2.767977 -0.595909,4.997779 -1.740235,6.771484 -1.164906,1.805604 -2.741035,3.154105 -4.800781,4.095703 -2.065683,0.944312 -4.480382,1.429688 -7.277344,1.429688 H 49.917969 Z"
             id="path306" />
        </g>
        <g
           aria-label="B"
           id="text1017"
           style="font-size:94.9861px;font-family:Comfortaa;-inkscape-font-specification:'Comfortaa, @wght=700';font-variation-settings:'wght' 700;fill:#2f64e0;stroke:#2d60d6;stroke-width:2;paint-order:stroke fill markers">
          <g
             id="path297">
            <path
               style="color:#000000;-inkscape-font-specification:'Comfortaa, @wght=700';fill:#2d60d6;stroke:none;-inkscape-stroke:none"
               d="m 43.978516,-148.82031 c -1.612992,0 -3.082316,0.59231 -4.203125,1.70508 -1.142638,1.07223 -1.734375,2.56565 -1.734375,4.23437 v 64.304688 c 0,1.620401 0.594089,3.097995 1.716796,4.220703 1.122709,1.122708 2.600303,1.71875 4.220704,1.71875 h 24.697265 c 4.882633,0 9.262775,-0.980409 13.091797,-2.960937 l 0.0059,-0.0039 0.0059,-0.0039 c 3.813448,-2.038222 6.81177,-4.831743 8.93164,-8.341797 2.188884,-3.5194 3.28125,-7.580537 3.28125,-12.105468 0,-4.988069 -1.331726,-9.153209 -4.037109,-12.332039 -2.245561,-2.63853 -5.256917,-4.38099 -8.701172,-5.55078 2.21742,-1.39246 4.150658,-3.03373 5.539063,-5.11523 l 0.002,-0.004 c 1.814026,-2.68898 2.732422,-5.72472 2.732422,-9.00976 0,-4.02288 -1.000469,-7.64755 -3.001953,-10.78711 -1.93198,-3.12916 -4.650795,-5.575 -8.087891,-7.29492 -3.388676,-1.79059 -7.323804,-2.67383 -11.755859,-2.67383 z m 0,2 h 22.703125 c 4.173679,0 7.766886,0.82351 10.833984,2.44726 l 0.01172,0.006 0.0098,0.006 c 3.143778,1.57189 5.551607,3.74541 7.291016,6.56446 l 0.0039,0.006 0.0039,0.006 c 1.794156,2.81085 2.691407,6.02188 2.691407,9.72071 0,2.9192 -0.788768,5.51851 -2.392578,7.89453 l -0.002,0.002 -0.002,0.004 c -1.545768,2.31865 -3.675033,4.15978 -6.453125,5.54883 l -2.445312,1.22265 2.65625,0.64258 c 4.006452,0.97126 7.149649,2.84996 9.542969,5.66211 2.360537,2.77363 3.560547,6.39797 3.560546,11.035156 10e-7,4.209936 -0.997601,7.867714 -2.984375,11.058593 l -0.002,0.0059 -0.0039,0.0059 c -1.931867,3.199654 -4.631345,5.72226 -8.160156,7.609375 -3.514924,1.81651 -7.553114,2.736328 -12.166016,2.736328 H 43.978516 c -1.165856,0 -2.029629,-0.355801 -2.806641,-1.132812 -0.777012,-0.777012 -1.130859,-1.640785 -1.130859,-2.806641 v -64.304689 c 0,-1.23906 0.355302,-2.085 1.105468,-2.78516 l 0.01367,-0.0117 0.01172,-0.0117 c 0.777012,-0.77701 1.640785,-1.13086 2.806641,-1.13086 z m 3.939453,7.11719 v 23.37304 h 1 17.763672 c 3.769747,0 6.95887,-0.94067 9.439453,-2.86719 2.600364,-1.97024 3.908203,-5.04354 3.908203,-8.86718 0,-3.81749 -1.307876,-6.86535 -3.910156,-8.77344 -2.48029,-1.92544 -5.668794,-2.86524 -9.4375,-2.86523 z m 2,2 h 16.763672 c 3.445724,-10e-6 6.140977,0.83316 8.21875,2.44921 l 0.01172,0.01 0.01367,0.01 c 2.072312,1.51222 3.103516,3.77682 3.103516,7.16992 0,3.39309 -1.03457,5.70131 -3.117188,7.27734 l -0.0059,0.004 -0.0059,0.004 c -2.077773,1.61605 -4.773025,2.44922 -8.21875,2.44922 h -16.76359 z m -2,28.49218 v 27.455081 h 1 19.757812 c 3.028846,0 5.742377,-0.527319 8.109375,-1.609375 2.372934,-1.08477 4.280384,-2.711548 5.648438,-4.832032 1.388634,-2.152383 2.060547,-4.797637 2.060547,-7.855468 0,-2.877972 -0.67873,-5.356086 -2.085938,-7.326176 -1.380206,-1.93228 -3.297206,-3.38642 -5.664062,-4.33398 -2.357812,-1.00707 -5.054537,-1.49805 -8.06836,-1.49805 z m 2,2 h 18.757812 c 2.804209,0 5.230236,0.45638 7.300781,1.34375 l 0.0098,0.004 0.01172,0.004 c 2.063881,0.82556 3.629315,2.02988 4.78125,3.64258 1.125752,1.57606 1.714844,3.596172 1.714844,6.164066 0,2.767977 -0.595909,4.997779 -1.740235,6.771484 -1.164906,1.805604 -2.741035,3.154105 -4.800781,4.095703 -2.065683,0.944312 -4.480382,1.429688 -7.277344,1.429688 H 49.917969 Z"
               id="path302" />
            <path
               style="color:#000000;-inkscape-font-specification:'Comfortaa, @wght=700';stroke:none;-inkscape-stroke:none"
               d="m 43.979332,-73.636948 q -2.089694,0 -3.514486,-1.424791 -1.424791,-1.424792 -1.424791,-3.514486 v -64.305585 q 0,-2.18468 1.424791,-3.51449 1.424792,-1.42479 3.514486,-1.42479 H 66.68101 q 6.459054,0 11.303345,2.56462 4.939278,2.46964 7.693874,6.93399 2.849583,4.46435 2.849583,10.2585 0,4.65432 -2.564624,8.45376 -2.469639,3.70446 -6.838999,5.88914 6.269082,1.51978 10.068526,5.98412 3.799444,4.46435 3.799444,11.683293 0,6.554041 -3.134541,11.588304 -3.039555,5.034263 -8.548749,7.978832 -5.509194,2.849583 -12.633151,2.849583 z m 4.939277,-9.118665 h 19.757109 q 4.36936,0 7.693874,-1.519778 3.324513,-1.519777 5.224235,-4.464346 1.899722,-2.944569 1.899722,-7.31393 0,-4.084403 -1.899722,-6.744013 -1.899722,-2.65961 -5.224235,-3.98942 -3.324514,-1.42479 -7.693874,-1.42479 H 48.918609 Z m 0,-34.574937 H 66.68101 q 5.414207,0 8.833707,-2.65961 3.514485,-2.65961 3.514485,-8.07382 0,-5.41421 -3.514485,-7.97883 -3.4195,-2.65962 -8.833707,-2.65962 H 48.918609 Z"
               id="path304" />
          </g>
        </g>
        <path
           id="text1073"
           style="font-style:normal;font-variant:normal;font-weight:normal;font-stretch:normal;font-size:94.9861px;line-height:1.35;font-family:Comfortaa;-inkscape-font-specification:'Comfortaa, @wght=700';font-variant-ligatures:normal;font-variant-caps:normal;font-variant-numeric:normal;font-variant-east-asian:normal;font-variation-settings:'wght' 700;fill:#326aed;fill-opacity:1;stroke-width:0.264583"
           d="m 52.032207,-147.82104 15.8564,9.15448 c 1.89606,0.11057 3.59123,0.48867 5.08754,1.13223 l -17.817,-10.28671 z m 13.11445,0 22.18572,12.80904 c -0.31916,-0.85281 -0.70287,-1.67539 -1.1498,-2.46858 l -17.83198,-10.2955 c -0.54645,-0.0294 -1.1016,-0.045 -1.66657,-0.045 z m -22.71076,0.22583 c -0.58835,0.18136 -1.12636,0.47083 -1.61127,0.87385 l 13.88804,8.01863 h 3.12539 z m -3.39308,5.61206 v 1.80506 l 9.87899,5.70353 v -1.80506 z m 36.32595,5.83014 c 0.04934,0.0371 0.1001,0.0722 0.14883,0.11007 1.18114,0.86191 2.06374,1.96622 2.64945,3.3109 l 10.31152,5.95313 c 0.03347,-0.42301 0.05219,-0.85102 0.05219,-1.28519 0,-0.1661 -0.0042,-0.33009 -0.0077,-0.49455 z m -36.32595,1.74097 v 1.80455 l 9.87899,5.70352 v -1.80454 z m 0,7.5706 v 1.80558 l 9.87899,5.70352 v -1.80505 z m 39.90816,0.32815 c -0.06009,0.5738 -0.15324,1.12177 -0.28267,1.64124 l 7.78196,4.49327 c 0.26896,-0.45264 0.51189,-0.91385 0.72863,-1.3839 z m -2.77606,5.96811 c -0.20867,0.19317 -0.42576,0.37977 -0.65732,0.555 -0.21798,0.16954 -0.44373,0.3283 -0.67386,0.48163 l 7.08225,4.08864 c 0.45629,-0.33341 0.89111,-0.68426 1.30432,-1.05214 z m -37.1321,1.27537 v 1.80454 l 16.02693,9.25319 h 3.12539 z m 29.44627,1.85829 c -0.58246,0.0526 -1.18312,0.0811 -1.80506,0.0811 h -1.18081 l 26.75238,15.44557 c -0.2221,-0.79582 -0.49633,-1.55416 -0.81856,-2.27738 z m -16.09979,0.0811 15.79386,9.11831 h 0.49558 c 1.02458,0 2.00354,0.0623 2.94194,0.17983 l -16.10496,-9.29814 z m -13.34648,5.6317 v 1.80454 l 9.87899,5.70353 v -1.80455 z m 0,7.57163 v 1.80454 l 9.87899,5.703533 v -1.80454 z m 43.07748,2.15645 c 0.40321,0.71667 0.71727,1.50002 0.94309,2.349733 l 9.84385,5.682859 c 0.04716,-0.576078 0.07427,-1.161882 0.08216,-1.756999 z m -43.07748,5.414143 v 1.805062 l 9.87899,5.703528 v -1.805058 z m 44.29911,2.862879 c -0.0763,0.562114 -0.17961,1.103982 -0.31316,1.623157 l 8.28838,4.785754 c 0.20432,-0.485331 0.39014,-0.979658 0.55707,-1.483114 z m -44.29911,4.70824 v 1.804541 l 23.45852,13.543876 h 3.12591 l -15.79439,-9.118823 h -0.91105 v -0.526066 z m 41.72614,1.377177 c -0.34191,0.415141 -0.70867,0.804942 -1.10278,1.167887 l 8.20467,4.737179 c 0.34069,-0.40067 0.66587,-0.814366 0.97617,-1.240752 z m -6.16707,4.010608 c -0.70526,0.222034 -1.44399,0.395018 -2.20968,0.529166 l 10.16475,5.868893 c 0.50269,-0.306792 0.98788,-0.628449 1.45625,-0.964283 z m -14.78152,0.841809 14.83113,8.562784 c 0.75232,-0.147566 1.48762,-0.324812 2.20659,-0.531233 l -13.9113,-8.031551 z m -20.77755,1.34152 v 1.805058 l 10.34408,5.972245 h 3.12642 z" />
      </g>
    </g>
  </g>
</svg>
