<?xml version="1.0" encoding="UTF-8" standalone="no"?>
<!-- Created with Inkscape (http://www.inkscape.org/) -->

<svg
   width="256"
   height="256"
   viewBox="0 0 67.733332 67.733333"
   version="1.1"
   id="svg1798"
   inkscape:version="1.2.1 (9c6d41e410, 2022-07-14)"
   inkscape:export-filename="c.png"
   inkscape:export-xdpi="96"
   inkscape:export-ydpi="96"
   sodipodi:docname="s.svg"
   xmlns:inkscape="http://www.inkscape.org/namespaces/inkscape"
   xmlns:sodipodi="http://sodipodi.sourceforge.net/DTD/sodipodi-0.dtd"
   xmlns="http://www.w3.org/2000/svg"
   xmlns:svg="http://www.w3.org/2000/svg">
  <sodipodi:namedview
     id="namedview1800"
     pagecolor="#ffffff"
     bordercolor="#666666"
     borderopacity="1.0"
     inkscape:showpageshadow="2"
     inkscape:pageopacity="0.0"
     inkscape:pagecheckerboard="0"
     inkscape:deskcolor="#d1d1d1"
     inkscape:document-units="px"
     showgrid="false"
     inkscape:zoom="1.3037281"
     inkscape:cx="221.67198"
     inkscape:cy="103.5492"
     inkscape:window-width="1920"
     inkscape:window-height="1009"
     inkscape:window-x="-8"
     inkscape:window-y="-8"
     inkscape:window-maximized="1"
     inkscape:current-layer="layer1" />
  <defs
     id="defs1795">
    <filter
       inkscape:collect="always"
       style="color-interpolation-filters:sRGB"
       id="filter32827"
       x="-0.079005368"
       y="-0.056752384"
       width="1.1583793"
       height="1.1135048">
      <feGaussianBlur
         inkscape:collect="always"
         stdDeviation="1.0998961"
         id="feGaussianBlur32829" />
    </filter>
  </defs>
  <g
     inkscape:label="Layer 1"
     inkscape:groupmode="layer"
     id="layer1">
    <g
       id="g37961"
       transform="matrix(0.50000003,0,0,0.50000003,45.356093,208.02123)"
       inkscape:export-filename="ranking-S.png"
       inkscape:export-xdpi="96"
       inkscape:export-ydpi="96">
      <rect
         style="fill:#0000ff;fill-opacity:0;fill-rule:evenodd;stroke-width:0.208134"
         id="rect37170"
         width="135.46666"
         height="135.46666"
         x="-90.712181"
         y="-416.04242" />
      <g
         id="g37901"
         transform="matrix(1.9218525,0,0,1.896937,-160.03315,257.35023)">
        <path
           d="m 71.706033,-287.21584 q -5.13072,0 -9.78042,-1.60334 -4.6497,-1.60335 -8.0969,-4.48937 -3.4472,-2.88603 -5.05055,-6.65389 -0.80167,-1.68352 0,-3.12653 0.88184,-1.443 2.88602,-1.84385 1.44302,-0.32067 2.80586,0.481 1.44302,0.72151 2.16452,2.24469 0.96201,2.00419 3.12652,3.6877 2.24469,1.68352 5.37123,2.72569 3.12652,1.04218 6.57372,1.04218 3.84803,0 7.05473,-1.20251 3.28686,-1.20251 5.29104,-3.4472 2.00419,-2.32485 2.00419,-5.69188 0,-4.24887 -3.36704,-7.6159 -3.28686,-3.36703 -10.90276,-4.16871 -9.94074,-0.962 -15.63263,-5.85222 -5.69188,-4.8902 -5.69188,-12.10526 0,-5.29104 2.96619,-8.97875 2.96619,-3.6877 8.01673,-5.61171 5.13071,-1.92402 11.38377,-1.92402 4.89021,0 8.49774,1.36284 3.68769,1.36285 6.41339,3.76787 2.72569,2.40502 4.72987,5.69188 1.12235,1.76368 0.88184,3.36703 -0.16033,1.52319 -1.52318,2.40503 -1.52317,0.962 -3.28686,0.40082 -1.76368,-0.56116 -2.64552,-2.08435 -1.28268,-2.32485 -3.12653,-3.92819 -1.84385,-1.60335 -4.32904,-2.48519 -2.48519,-0.96201 -5.85222,-0.96201 -5.93238,-0.0802 -9.94074,2.24469 -4.00838,2.24469 -4.00838,6.97456 0,2.40502 1.20251,4.64971 1.28268,2.16452 4.56954,3.76786 3.36703,1.60335 9.62009,2.24468 9.53992,0.96202 14.83096,5.85222 5.37121,4.81004 5.37121,12.74661 0,4.56954 -1.92401,7.93657 -1.84385,3.36703 -5.05055,5.69188 -3.12652,2.24469 -7.21505,3.36703 -4.00838,1.12234 -8.33741,1.12234 z"
           id="path33569"
           style="font-size:63.1593px;line-height:1.35;font-family:Comfortaa;-inkscape-font-specification:'Comfortaa, @wght=700';font-variation-settings:'wght' 700;fill:none;fill-opacity:1;stroke:#d6c000;stroke-width:2;stroke-dasharray:none;stroke-opacity:1;paint-order:stroke fill markers;filter:url(#filter32827)" />
        <path
           d="m 71.706033,-287.21584 q -5.13072,0 -9.78042,-1.60334 -4.6497,-1.60335 -8.0969,-4.48937 -3.4472,-2.88603 -5.05055,-6.65389 -0.80167,-1.68352 0,-3.12653 0.88184,-1.443 2.88602,-1.84385 1.44302,-0.32067 2.80586,0.481 1.44302,0.72151 2.16452,2.24469 0.96201,2.00419 3.12652,3.6877 2.24469,1.68352 5.37123,2.72569 3.12652,1.04218 6.57372,1.04218 3.84803,0 7.05473,-1.20251 3.28686,-1.20251 5.29104,-3.4472 2.00419,-2.32485 2.00419,-5.69188 0,-4.24887 -3.36704,-7.6159 -3.28686,-3.36703 -10.90276,-4.16871 -9.94074,-0.962 -15.63263,-5.85222 -5.69188,-4.8902 -5.69188,-12.10526 0,-5.29104 2.96619,-8.97875 2.96619,-3.6877 8.01673,-5.61171 5.13071,-1.92402 11.38377,-1.92402 4.89021,0 8.49774,1.36284 3.68769,1.36285 6.41339,3.76787 2.72569,2.40502 4.72987,5.69188 1.12235,1.76368 0.88184,3.36703 -0.16033,1.52319 -1.52318,2.40503 -1.52317,0.962 -3.28686,0.40082 -1.76368,-0.56116 -2.64552,-2.08435 -1.28268,-2.32485 -3.12653,-3.92819 -1.84385,-1.60335 -4.32904,-2.48519 -2.48519,-0.96201 -5.85222,-0.96201 -5.93238,-0.0802 -9.94074,2.24469 -4.00838,2.24469 -4.00838,6.97456 0,2.40502 1.20251,4.64971 1.28268,2.16452 4.56954,3.76786 3.36703,1.60335 9.62009,2.24468 9.53992,0.96202 14.83096,5.85222 5.37121,4.81004 5.37121,12.74661 0,4.56954 -1.92401,7.93657 -1.84385,3.36703 -5.05055,5.69188 -3.12652,2.24469 -7.21505,3.36703 -4.00838,1.12234 -8.33741,1.12234 z"
           id="path33571"
           style="font-size:63.1593px;line-height:1.35;font-family:Comfortaa;-inkscape-font-specification:'Comfortaa, @wght=700';font-variation-settings:'wght' 700;fill:#ffe936;fill-opacity:1;stroke:#d6c000;stroke-width:2;stroke-dasharray:none;stroke-opacity:1;paint-order:stroke fill markers" />
        <path
           id="path33573"
           style="fill:#ffef6e;fill-opacity:1;fill-rule:evenodd;stroke-width:0.338707"
           d="m 75.983463,-351.19318 15.22698,8.79171 c -0.80975,-1.10378 -1.69091,-2.12026 -2.6448,-3.04787 l -8.68371,-5.01365 c -1.20521,-0.34357 -2.50527,-0.58635 -3.89847,-0.73019 z m -8.11423,0.17157 c -0.69069,0.0945 -1.36931,0.20963 -2.03605,0.34519 l 26.65005,15.38615 c 0.31854,-0.32656 0.55346,-0.69753 0.70021,-1.1157 z m -7.5091,2.04173 c -0.49409,0.21706 -0.97174,0.44814 -1.43299,0.69298 l 8.53384,4.92683 c 0.66719,-0.13851 1.35948,-0.2458 2.0774,-0.32091 z m -5.23328,3.35535 c -0.33607,0.30862 -0.65838,0.62886 -0.96583,0.9617 l 7.0621,4.07779 c 0.35608,-0.30275 0.75056,-0.58163 1.18029,-0.83871 z m -3.34346,4.44624 c -0.18714,0.39936 -0.35394,0.80954 -0.50126,1.23042 l 7.4135,4.28036 c 0.0506,-0.47892 0.13825,-0.93494 0.2589,-1.37046 z m -1.30638,5.6224 c -0.009,0.2379 -0.0155,0.47792 -0.0155,0.72088 0,0.26983 0.007,0.53656 0.0186,0.80151 l 43.44437,25.08167 c -0.10751,-0.60138 -0.2433,-1.18638 -0.40721,-1.75493 l -24.08741,-13.90665 c -2.01119,-0.40856 -3.68598,-0.92904 -5.01882,-1.56373 -2.19124,-1.06889 -3.71463,-2.32471 -4.56975,-3.76772 -0.0511,-0.0953 -0.0958,-0.19155 -0.14366,-0.28733 z m 1.30689,7.13135 c 0.34938,0.77671 0.76773,1.52525 1.25574,2.24534 l 15.27969,8.82168 c 1.10829,0.20244 2.26196,0.36268 3.46335,0.47904 z m 30.38833,6.31124 6.13296,3.54087 c -1.72943,-1.47155 -3.77559,-2.64987 -6.13296,-3.54087 z m 3.04064,12.98887 c 0.26881,0.60745 0.47108,1.23216 0.61133,1.87327 l 8.20829,4.73873 c 0.0691,-0.46597 0.11915,-0.94359 0.15244,-1.43195 z m -35.49912,5.01106 c -0.3669,0.27331 -0.67184,0.60369 -0.91468,0.99219 l 27.07845,15.63419 c 0.68743,-0.0908 1.36789,-0.20511 2.04226,-0.34158 z m 35.99108,1.64952 c -0.12369,0.43331 -0.27986,0.84985 -0.46922,1.24901 l 6.9603,4.01836 c 0.0378,-0.0669 0.0762,-0.133 0.11317,-0.2005 0.17927,-0.31373 0.34498,-0.63593 0.49919,-0.96532 z m -3.22616,4.51445 c -0.38178,0.29182 -0.78664,0.56451 -1.21491,0.81855 l 7.4166,4.28243 c 0.34382,-0.30569 0.6732,-0.62249 0.98805,-0.95033 z m -32.41611,0.41393 c 0.63518,0.99269 1.38306,1.93179 2.24431,2.81636 l 10.94972,6.32158 c 1.36213,0.39714 2.75422,0.69474 4.17649,0.89142 z m 26.12347,2.32957 c -0.6713,0.14338 -1.36252,0.24978 -2.07016,0.32505 l 9.28574,5.36091 c 0.49158,-0.21526 0.96986,-0.44601 1.43557,-0.69143 z" />
      </g>
    </g>
  </g>
</svg>
