<?xml version="1.0" encoding="UTF-8" standalone="no"?>
<!-- Created with Inkscape (http://www.inkscape.org/) -->

<svg
   width="256"
   height="256"
   viewBox="0 0 67.733332 67.733333"
   version="1.1"
   id="svg1798"
   inkscape:version="1.2.1 (9c6d41e410, 2022-07-14)"
   inkscape:export-filename="c.png"
   inkscape:export-xdpi="96"
   inkscape:export-ydpi="96"
   sodipodi:docname="c.svg"
   xmlns:inkscape="http://www.inkscape.org/namespaces/inkscape"
   xmlns:sodipodi="http://sodipodi.sourceforge.net/DTD/sodipodi-0.dtd"
   xmlns="http://www.w3.org/2000/svg"
   xmlns:svg="http://www.w3.org/2000/svg">
  <sodipodi:namedview
     id="namedview1800"
     pagecolor="#ffffff"
     bordercolor="#666666"
     borderopacity="1.0"
     inkscape:showpageshadow="2"
     inkscape:pageopacity="0.0"
     inkscape:pagecheckerboard="0"
     inkscape:deskcolor="#d1d1d1"
     inkscape:document-units="px"
     showgrid="false"
     inkscape:zoom="1.3037281"
     inkscape:cx="-82.839359"
     inkscape:cy="103.5492"
     inkscape:window-width="1920"
     inkscape:window-height="1009"
     inkscape:window-x="-8"
     inkscape:window-y="-8"
     inkscape:window-maximized="1"
     inkscape:current-layer="layer1" />
  <defs
     id="defs1795">
    <filter
       inkscape:collect="always"
       style="color-interpolation-filters:sRGB"
       id="filter27850"
       x="-0.051894265"
       y="-0.042361901"
       width="1.1037885"
       height="1.0847238">
      <feGaussianBlur
         inkscape:collect="always"
         stdDeviation="1.3782483"
         id="feGaussianBlur27852" />
    </filter>
  </defs>
  <g
     inkscape:label="Layer 1"
     inkscape:groupmode="layer"
     id="layer1">
    <g
       id="g38712"
       transform="matrix(0.50000003,0,0,0.49999706,194.4066,205.36741)"
       inkscape:export-filename="ranking-C.png"
       inkscape:export-xdpi="96"
       inkscape:export-ydpi="96">
      <rect
         style="fill:#0000ff;fill-opacity:0;fill-rule:evenodd;stroke-width:0.208134"
         id="rect37150"
         width="135.46666"
         height="135.46666"
         x="-388.81317"
         y="-410.73724" />
      <g
         id="g37157"
         transform="matrix(1.5700212,0,0,1.5993803,-550.91499,-167.79802)">
        <g
           aria-label="C"
           id="text27848"
           style="font-size:94.9861px;font-family:Comfortaa;-inkscape-font-specification:'Comfortaa, @wght=700';font-variation-settings:'wght' 700;fill:none;stroke:#d62dcc;stroke-width:2;paint-order:stroke fill markers;filter:url(#filter27850)">
          <path
             style="color:#000000;-inkscape-font-specification:'Comfortaa, @wght=700';fill:#d62dcc;stroke:none;-inkscape-stroke:none"
             d="m 152.18359,-148.58789 c -5.31858,0 -10.27692,1.00771 -14.84179,3.0293 -4.54745,2.01387 -8.55633,4.817 -12,8.39062 -3.38237,3.51246 -6.0482,7.6466 -7.99219,12.37695 l -0.002,0.002 -0.002,0.004 c -1.88674,4.68434 -2.82617,9.75712 -2.82617,15.19141 0,5.49627 0.93866,10.630536 2.82422,15.376953 l 0.004,0.0059 0.002,0.0059 c 1.94338,4.728871 4.6077,8.891294 7.98633,12.464844 l 0.006,0.0059 0.008,0.0078 c 3.44333,3.508295 7.44838,6.274851 11.99219,8.287109 l 0.008,0.0039 0.008,0.0039 c 4.6216,1.952786 9.57348,2.927735 14.82617,2.927735 4.41388,0 8.61944,-0.715077 12.59375,-2.148438 h -0.006 c 4.03337,-1.431194 7.80627,-3.546646 11.30664,-6.333984 l 0.0449,-0.03516 0.0391,-0.03906 c 0.58024,-0.580248 1.03853,-1.220495 1.34766,-1.916015 l 0.008,-0.01758 0.006,-0.01758 c 0.29598,-0.73996 0.45117,-1.504912 0.45117,-2.271484 0,-1.56724 -0.45576,-2.94281 -1.42188,-3.917969 -0.91038,-0.978195 -2.13129,-1.547064 -3.47656,-1.630859 -1.35794,-0.151489 -2.72783,0.305819 -4,1.224609 l -0.004,0.002 -0.004,0.0039 c -2.59243,1.913463 -5.30074,3.419058 -8.12695,4.52539 -0.001,5.26e-4 -0.003,0.0014 -0.004,0.002 -2.72942,1.029481 -5.63987,1.546875 -8.75391,1.546875 -3.60033,0 -6.96261,-0.698421 -10.12304,-2.09375 l -0.004,-0.002 c -3.17407,-1.465557 -5.97587,-3.473218 -8.42187,-6.039062 l -0.002,-0.0039 c -2.38255,-2.566614 -4.24443,-5.523193 -5.59375,-8.894531 l -0.002,-0.0039 c -2.2e-4,-5.52e-4 2.2e-4,-0.0014 0,-0.002 -1.34422,-3.423833 -2.01953,-7.091373 -2.01953,-11.027343 0,-3.87301 0.6753,-7.47536 2.01953,-10.83594 v -0.004 l 0.002,-0.002 c 1.35071,-3.43815 3.21307,-6.42822 5.59571,-8.99414 2.44724,-2.56738 5.24967,-4.57707 8.42578,-6.04297 3.16219,-1.45946 6.52252,-2.1875 10.12304,-2.1875 4.02889,0 7.19543,0.53802 9.47852,1.53321 h 0.006 l 0.004,0.002 c 2.42724,1.03158 4.77638,2.52319 7.05079,4.49023 l 0.0195,0.0176 0.0195,0.0156 c 1.28353,0.99832 2.71733,1.52239 4.18164,1.44531 l 0.0254,-0.002 0.0273,-0.002 c 1.38662,-0.14595 2.632,-0.68403 3.61328,-1.58984 v -0.002 h 0.002 c 1.06454,-0.98851 1.64844,-2.32467 1.64844,-3.77344 0,-0.59914 -0.0744,-1.12639 -0.22266,-1.61914 -0.095,-0.58736 -0.35638,-1.13622 -0.73438,-1.60938 -0.33037,-0.54813 -0.776,-1.03577 -1.33593,-1.45703 -3.60631,-2.95791 -7.23854,-5.10861 -10.90235,-6.41797 -3.62367,-1.3177 -7.91833,-1.95898 -12.88086,-1.95898 z m 0,2 c 4.78937,0 8.8553,0.62458 12.19727,1.83984 h 0.002 l 0.004,0.002 c 3.41688,1.22031 6.86511,3.24536 10.33984,6.09961 l 0.0156,0.0137 0.0176,0.0137 c 0.42126,0.31595 0.70117,0.63086 0.87304,0.93164 l 0.043,0.0762 0.0566,0.0664 c 0.21517,0.25821 0.31167,0.48445 0.34766,0.73633 l 0.0137,0.0898 0.0273,0.0859 c 0.0792,0.23763 0.13868,0.61157 0.13868,1.10742 0,0.95755 -0.30125,1.64873 -1.00977,2.30664 -0.65952,0.60808 -1.43631,0.95041 -2.44336,1.06055 -0.93085,0.0413 -1.83135,-0.25532 -2.81641,-1.02149 l 0.041,0.0332 c -2.4087,-2.0832 -4.9331,-3.69318 -7.56836,-4.81446 l -0.006,-0.002 c -2.65545,-1.15626 -6.07293,-1.69727 -10.27344,-1.69727 -3.87171,0 -7.53938,0.79298 -10.96289,2.37305 -3.40578,1.57191 -6.42636,3.73889 -9.04297,6.48633 l -0.004,0.006 -0.004,0.004 c -2.55527,2.75184 -4.55484,5.96547 -5.99023,9.61719 -5.3e-4,10e-4 -0.001,0.003 -0.002,0.004 -2.1e-4,5.5e-4 2.2e-4,0.001 0,0.002 -1.44049,3.60344 -2.16015,7.47058 -2.16015,11.57422 0,4.16733 0.71962,8.09686 2.16015,11.763672 v 0.0039 l 0.002,0.002 c 1.43621,3.590511 3.4363,6.77304 5.99023,9.523438 l 0.004,0.0039 0.004,0.0059 c 2.61661,2.747434 5.63719,4.914425 9.04297,6.486329 l 0.008,0.0039 0.008,0.002 c 3.4208,1.513047 7.0812,2.271484 10.94726,2.271484 3.34064,0 6.50624,-0.559042 9.47266,-1.679687 l 0.006,-0.002 0.006,-0.002 c 2.99472,-1.171848 5.85537,-2.766917 8.57812,-4.775391 l 0.004,-0.002 c 0.002,-0.0014 0.004,-0.0025 0.006,-0.0039 0.99419,-0.715361 1.82998,-0.949575 2.61328,-0.857422 l 0.0312,0.0039 0.0293,0.002 c 0.91249,0.0507 1.57235,0.360279 2.17187,1.009766 l 0.0137,0.01563 0.0137,0.01367 c 0.54382,0.543827 0.8457,1.310173 0.8457,2.521484 0,0.494139 -0.0991,0.991834 -0.30469,1.511719 -0.19189,0.425596 -0.48676,0.844674 -0.89453,1.259765 -3.3228,2.636697 -6.87407,4.627004 -10.67187,5.97461 l -0.004,0.002 h -0.002 c -3.75121,1.352895 -7.71587,2.03125 -11.91407,2.03125 -5.00426,0 -9.67564,-0.923997 -14.04492,-2.769531 -0.001,-5.61e-4 -0.003,-0.0014 -0.004,-0.002 -4.31347,-1.912601 -8.08928,-4.526497 -11.35352,-7.851562 -0.001,-0.001 -0.003,-9.32e-4 -0.004,-0.002 -3.20059,-3.388514 -5.72258,-7.326362 -7.57617,-11.835938 -3.4e-4,-8.31e-4 -0.002,-0.0011 -0.002,-0.002 -1.78422,-4.495723 -2.67969,-9.362586 -2.67969,-14.626956 0,-5.20191 0.89517,-10.00476 2.67969,-14.4375 v -0.002 c 5.3e-4,-10e-4 0.001,-0.003 0.002,-0.004 1.85524,-4.51249 4.38008,-8.41903 7.58203,-11.74414 3.26868,-3.39202 7.04928,-6.03505 11.36719,-7.94727 4.30049,-1.9045 8.96665,-2.85937 14.0332,-2.85937 z"
             id="path306" />
        </g>
        <g
           aria-label="C"
           id="text21697"
           style="font-size:94.9861px;font-family:Comfortaa;-inkscape-font-specification:'Comfortaa, @wght=700';font-variation-settings:'wght' 700;fill:#e02fd5;stroke:#d62dcc;stroke-width:2;paint-order:stroke fill markers">
          <g
             id="path297">
            <path
               style="color:#000000;-inkscape-font-specification:'Comfortaa, @wght=700';fill:#d62dcc;stroke:none;-inkscape-stroke:none"
               d="m 152.18359,-148.58789 c -5.31858,0 -10.27692,1.00771 -14.84179,3.0293 -4.54745,2.01387 -8.55633,4.817 -12,8.39062 -3.38237,3.51246 -6.0482,7.6466 -7.99219,12.37695 l -0.002,0.002 -0.002,0.004 c -1.88674,4.68434 -2.82617,9.75712 -2.82617,15.19141 0,5.49627 0.93866,10.630536 2.82422,15.376953 l 0.004,0.0059 0.002,0.0059 c 1.94338,4.728871 4.6077,8.891294 7.98633,12.464844 l 0.006,0.0059 0.008,0.0078 c 3.44333,3.508295 7.44838,6.274851 11.99219,8.287109 l 0.008,0.0039 0.008,0.0039 c 4.6216,1.952786 9.57348,2.927735 14.82617,2.927735 4.41388,0 8.61944,-0.715077 12.59375,-2.148438 h -0.006 c 4.03337,-1.431194 7.80627,-3.546646 11.30664,-6.333984 l 0.0449,-0.03516 0.0391,-0.03906 c 0.58024,-0.580248 1.03853,-1.220495 1.34766,-1.916015 l 0.008,-0.01758 0.006,-0.01758 c 0.29598,-0.73996 0.45117,-1.504912 0.45117,-2.271484 0,-1.56724 -0.45576,-2.94281 -1.42188,-3.917969 -0.91038,-0.978195 -2.13129,-1.547064 -3.47656,-1.630859 -1.35794,-0.151489 -2.72783,0.305819 -4,1.224609 l -0.004,0.002 -0.004,0.0039 c -2.59243,1.913463 -5.30074,3.419058 -8.12695,4.52539 -0.001,5.26e-4 -0.003,0.0014 -0.004,0.002 -2.72942,1.029481 -5.63987,1.546875 -8.75391,1.546875 -3.60033,0 -6.96261,-0.698421 -10.12304,-2.09375 l -0.004,-0.002 c -3.17407,-1.465557 -5.97587,-3.473218 -8.42187,-6.039062 l -0.002,-0.0039 c -2.38255,-2.566614 -4.24443,-5.523193 -5.59375,-8.894531 l -0.002,-0.0039 c -2.2e-4,-5.52e-4 2.2e-4,-0.0014 0,-0.002 -1.34422,-3.423833 -2.01953,-7.091373 -2.01953,-11.027343 0,-3.87301 0.6753,-7.47536 2.01953,-10.83594 v -0.004 l 0.002,-0.002 c 1.35071,-3.43815 3.21307,-6.42822 5.59571,-8.99414 2.44724,-2.56738 5.24967,-4.57707 8.42578,-6.04297 3.16219,-1.45946 6.52252,-2.1875 10.12304,-2.1875 4.02889,0 7.19543,0.53802 9.47852,1.53321 h 0.006 l 0.004,0.002 c 2.42724,1.03158 4.77638,2.52319 7.05079,4.49023 l 0.0195,0.0176 0.0195,0.0156 c 1.28353,0.99832 2.71733,1.52239 4.18164,1.44531 l 0.0254,-0.002 0.0273,-0.002 c 1.38662,-0.14595 2.632,-0.68403 3.61328,-1.58984 v -0.002 h 0.002 c 1.06454,-0.98851 1.64844,-2.32467 1.64844,-3.77344 0,-0.59914 -0.0744,-1.12639 -0.22266,-1.61914 -0.095,-0.58736 -0.35638,-1.13622 -0.73438,-1.60938 -0.33037,-0.54813 -0.776,-1.03577 -1.33593,-1.45703 -3.60631,-2.95791 -7.23854,-5.10861 -10.90235,-6.41797 -3.62367,-1.3177 -7.91833,-1.95898 -12.88086,-1.95898 z m 0,2 c 4.78937,0 8.8553,0.62458 12.19727,1.83984 h 0.002 l 0.004,0.002 c 3.41688,1.22031 6.86511,3.24536 10.33984,6.09961 l 0.0156,0.0137 0.0176,0.0137 c 0.42126,0.31595 0.70117,0.63086 0.87304,0.93164 l 0.043,0.0762 0.0566,0.0664 c 0.21517,0.25821 0.31167,0.48445 0.34766,0.73633 l 0.0137,0.0898 0.0273,0.0859 c 0.0792,0.23763 0.13868,0.61157 0.13868,1.10742 0,0.95755 -0.30125,1.64873 -1.00977,2.30664 -0.65952,0.60808 -1.43631,0.95041 -2.44336,1.06055 -0.93085,0.0413 -1.83135,-0.25532 -2.81641,-1.02149 l 0.041,0.0332 c -2.4087,-2.0832 -4.9331,-3.69318 -7.56836,-4.81446 l -0.006,-0.002 c -2.65545,-1.15626 -6.07293,-1.69727 -10.27344,-1.69727 -3.87171,0 -7.53938,0.79298 -10.96289,2.37305 -3.40578,1.57191 -6.42636,3.73889 -9.04297,6.48633 l -0.004,0.006 -0.004,0.004 c -2.55527,2.75184 -4.55484,5.96547 -5.99023,9.61719 -5.3e-4,10e-4 -0.001,0.003 -0.002,0.004 -2.1e-4,5.5e-4 2.2e-4,0.001 0,0.002 -1.44049,3.60344 -2.16015,7.47058 -2.16015,11.57422 0,4.16733 0.71962,8.09686 2.16015,11.763672 v 0.0039 l 0.002,0.002 c 1.43621,3.590511 3.4363,6.77304 5.99023,9.523438 l 0.004,0.0039 0.004,0.0059 c 2.61661,2.747434 5.63719,4.914425 9.04297,6.486329 l 0.008,0.0039 0.008,0.002 c 3.4208,1.513047 7.0812,2.271484 10.94726,2.271484 3.34064,0 6.50624,-0.559042 9.47266,-1.679687 l 0.006,-0.002 0.006,-0.002 c 2.99472,-1.171848 5.85537,-2.766917 8.57812,-4.775391 l 0.004,-0.002 c 0.002,-0.0014 0.004,-0.0025 0.006,-0.0039 0.99419,-0.715361 1.82998,-0.949575 2.61328,-0.857422 l 0.0312,0.0039 0.0293,0.002 c 0.91249,0.0507 1.57235,0.360279 2.17187,1.009766 l 0.0137,0.01563 0.0137,0.01367 c 0.54382,0.543827 0.8457,1.310173 0.8457,2.521484 0,0.494139 -0.0991,0.991834 -0.30469,1.511719 -0.19189,0.425596 -0.48676,0.844674 -0.89453,1.259765 -3.3228,2.636697 -6.87407,4.627004 -10.67187,5.97461 l -0.004,0.002 h -0.002 c -3.75121,1.352895 -7.71587,2.03125 -11.91407,2.03125 -5.00426,0 -9.67564,-0.923997 -14.04492,-2.769531 -0.001,-5.61e-4 -0.003,-0.0014 -0.004,-0.002 -4.31347,-1.912601 -8.08928,-4.526497 -11.35352,-7.851562 -0.001,-0.001 -0.003,-9.32e-4 -0.004,-0.002 -3.20059,-3.388514 -5.72258,-7.326362 -7.57617,-11.835938 -3.4e-4,-8.31e-4 -0.002,-0.0011 -0.002,-0.002 -1.78422,-4.495723 -2.67969,-9.362586 -2.67969,-14.626956 0,-5.20191 0.89517,-10.00476 2.67969,-14.4375 v -0.002 c 5.3e-4,-10e-4 0.001,-0.003 0.002,-0.004 1.85524,-4.51249 4.38008,-8.41903 7.58203,-11.74414 3.26868,-3.39202 7.04928,-6.03505 11.36719,-7.94727 4.30049,-1.9045 8.96665,-2.85937 14.0332,-2.85937 z"
               id="path302" />
            <path
               style="color:#000000;-inkscape-font-specification:'Comfortaa, @wght=700';stroke:none;-inkscape-stroke:none"
               d="m 152.18399,-71.50418 q -7.69387,0 -14.43789,-2.849583 -6.64902,-2.944569 -11.68329,-8.073818 -4.93927,-5.224235 -7.78886,-12.158221 -2.75459,-6.933988 -2.75459,-15.007808 0,-7.97883 2.75459,-14.81783 2.84959,-6.93398 7.78886,-12.06323 5.03427,-5.22424 11.68329,-8.16881 6.64903,-2.94457 14.43789,-2.94457 7.31393,0 12.53817,1.89973 5.31922,1.89972 10.63844,6.26908 0.75989,0.56992 1.13983,1.23482 0.47493,0.56992 0.56992,1.23482 0.18997,0.56991 0.18997,1.42479 0,1.80474 -1.3298,3.03955 -1.23482,1.13984 -3.03956,1.32981 -1.80474,0.095 -3.51448,-1.23482 -3.51449,-3.03955 -7.31393,-4.65432 -3.70446,-1.61476 -9.87856,-1.61476 -5.60418,0 -10.54346,2.27966 -4.93927,2.27967 -8.73872,6.26909 -3.70445,3.98941 -5.79415,9.30863 -2.08969,5.22424 -2.08969,11.20836 0,6.07912 2.08969,11.398337 2.0897,5.224235 5.79415,9.213651 3.79945,3.989416 8.73872,6.269083 4.93928,2.18468 10.54346,2.18468 4.84429,0 9.11867,-1.614764 4.36936,-1.709749 8.35877,-4.654319 1.70975,-1.234819 3.32452,-1.044847 1.70975,0.09499 2.84958,1.329806 1.13983,1.139833 1.13983,3.229527 0,0.949861 -0.37994,1.899722 -0.37995,0.854875 -1.13983,1.614764 -5.12925,4.084402 -11.01839,6.174096 -5.79415,2.089694 -12.25321,2.089694 z"
               id="path304" />
          </g>
        </g>
        <path
           id="path26972"
           style="fill:#ed32e2;fill-opacity:1;fill-rule:evenodd;stroke-width:0.338707"
           d="m 152.18391,-147.58807 c -0.2257,0 -0.44959,0.004 -0.67386,0.008 l 25.00519,14.43684 c 0.29148,-0.40377 0.49259,-0.84629 0.61289,-1.32343 l -22.6379,-13.07 c -0.7513,-0.0331 -1.51866,-0.0512 -2.30632,-0.0512 z m -8.36693,0.92397 c -0.67258,0.15513 -1.33725,0.33135 -1.99471,0.52555 l 13.10876,7.56853 c 1.36105,0.0917 2.61228,0.2555 3.7543,0.49041 z m -7.51323,2.69803 c -0.51593,0.25475 -1.02393,0.52037 -1.52446,0.79685 l 9.79734,5.6565 c 0.65243,-0.20531 1.31272,-0.38323 1.98127,-0.5333 z m -5.89267,3.63285 c -0.41522,0.31387 -0.82448,0.63633 -1.2268,0.96842 l 8.74262,5.04775 c 0.45918,-0.30199 0.92699,-0.59092 1.40405,-0.8661 z m -4.75423,4.29018 c -0.33751,0.36201 -0.66777,0.73077 -0.99012,1.10587 l 8.28011,4.78059 c 0.34879,-0.36466 0.70502,-0.71779 1.06816,-1.06092 z m -3.80545,4.83846 c -0.26624,0.40352 -0.52574,0.81253 -0.77773,1.22835 l 8.19691,4.73253 c 0.24797,-0.41852 0.50565,-0.82854 0.77257,-1.23145 z m -2.94349,5.33508 c -0.2012,0.44142 -0.39671,0.88797 -0.58446,1.341 l 8.37055,4.83226 c 0.13086,-0.37108 0.2672,-0.74036 0.41341,-1.10587 0.0356,-0.0907 0.0732,-0.17966 0.10955,-0.26975 z m -2.0836,5.83323 c -0.12818,0.48647 -0.24468,0.97798 -0.35398,1.47227 l 8.78138,5.06997 c 0.0631,-0.51951 0.13905,-1.03446 0.22789,-1.54461 z m -1.11931,6.38928 c -0.0494,0.53203 -0.0872,1.06846 -0.11679,1.60868 l 9.56893,5.52473 c -0.0526,-0.57482 -0.0895,-1.15527 -0.11214,-1.74098 z m -0.092,6.98148 c 0.0382,0.5933 0.0892,1.18119 0.15089,1.76475 l 11.26753,6.505035 c -0.26407,-0.68687 -0.50156,-1.38349 -0.71365,-2.089285 z m 1.24023,7.751475 c 0.17917,0.68086 0.37795,1.353606 0.59325,2.019513 l 18.44952,10.652063 c -1.05102,-0.833742 -2.04893,-1.746904 -2.99413,-2.739367 -0.40448,-0.43559 -0.79281,-0.883332 -1.16841,-1.341004 z m 3.82768,9.244912 c 0.52172,0.906261 1.07684,1.784913 1.66346,2.638082 l 26.67589,15.40061 c 1.02752,0.08138 2.06749,0.124508 3.12178,0.125574 z m 51.86505,1.803508 c -0.65478,0.0013 -1.32101,0.175785 -1.99885,0.522965 l 6.41563,3.704167 c -0.0372,-0.746849 -0.19149,-1.396188 -0.4656,-1.945618 z m -6.36964,3.357934 c -0.49094,0.2857 -0.98523,0.560303 -1.48415,0.820105 l 9.03925,5.218803 c 0.42688,-0.304874 0.84981,-0.619512 1.26917,-0.944128 z m -23.25853,2.319239 17.08888,9.866064 c 0.68304,-0.147796 1.35956,-0.317037 2.02985,-0.504879 l -13.83998,-7.990726 c -1.81665,-0.269147 -3.57657,-0.725212 -5.27875,-1.370459 z m 16.33337,0.717785 c -0.67919,0.189996 -1.3686,0.350658 -2.06809,0.483175 l 10.49962,6.061645 c 0.52579,-0.245445 1.04668,-0.503508 1.56269,-0.774629 z" />
      </g>
    </g>
  </g>
</svg>
