<?xml version="1.0" encoding="UTF-8" standalone="no"?>
<!-- Created with Inkscape (http://www.inkscape.org/) -->

<svg
   width="256"
   height="256"
   viewBox="0 0 67.733332 67.733333"
   version="1.1"
   id="svg1798"
   inkscape:version="1.2.1 (9c6d41e410, 2022-07-14)"
   inkscape:export-filename="c.png"
   inkscape:export-xdpi="96"
   inkscape:export-ydpi="96"
   sodipodi:docname="d.svg"
   xmlns:inkscape="http://www.inkscape.org/namespaces/inkscape"
   xmlns:sodipodi="http://sodipodi.sourceforge.net/DTD/sodipodi-0.dtd"
   xmlns="http://www.w3.org/2000/svg"
   xmlns:svg="http://www.w3.org/2000/svg">
  <sodipodi:namedview
     id="namedview1800"
     pagecolor="#ffffff"
     bordercolor="#666666"
     borderopacity="1.0"
     inkscape:showpageshadow="2"
     inkscape:pageopacity="0.0"
     inkscape:pagecheckerboard="0"
     inkscape:deskcolor="#d1d1d1"
     inkscape:document-units="px"
     showgrid="false"
     inkscape:zoom="1.3037281"
     inkscape:cx="32.215306"
     inkscape:cy="93.577794"
     inkscape:window-width="1920"
     inkscape:window-height="1009"
     inkscape:window-x="-8"
     inkscape:window-y="-8"
     inkscape:window-maximized="1"
     inkscape:current-layer="layer1" />
  <defs
     id="defs1795">
    <filter
       inkscape:collect="always"
       style="color-interpolation-filters:sRGB"
       id="filter30921"
       x="-0.052727293"
       y="-0.042097914"
       width="1.1054546"
       height="1.0841958">
      <feGaussianBlur
         inkscape:collect="always"
         stdDeviation="1.5865889"
         id="feGaussianBlur30923" />
    </filter>
  </defs>
  <g
     inkscape:label="Layer 1"
     inkscape:groupmode="layer"
     id="layer1">
    <g
       id="g37970"
       transform="matrix(0.50000003,0,0,0.49999552,117.21043,208.01996)"
       inkscape:export-filename="ranking-D.png"
       inkscape:export-xdpi="96"
       inkscape:export-ydpi="96">
      <rect
         style="fill:#0000ff;fill-opacity:0;fill-rule:evenodd;stroke-width:0.208134"
         id="rect37159"
         width="135.46666"
         height="135.46666"
         x="-234.42084"
         y="-416.04242" />
      <g
         id="g37166"
         transform="matrix(1.3070035,0,0,1.382126,72.441625,129.56339)">
        <g
           aria-label="D"
           transform="matrix(1.000548,0,0,0.99945227,-429.68333,-238.125)"
           id="text30193"
           style="font-size:113.254px;font-family:Comfortaa;-inkscape-font-specification:'Comfortaa, @wght=700';font-variation-settings:'wght' 700;fill:none;stroke:#d62d30;stroke-width:2;paint-order:stroke fill markers;filter:url(#filter30921)">
          <path
             style="color:#000000;-inkscape-font-specification:'Comfortaa, @wght=700';fill:#d62d30;stroke:none;-inkscape-stroke:none"
             d="m 217.36719,-152.91211 c -1.88088,0 -3.57554,0.68509 -4.87891,1.98047 -1.32529,1.24266 -2.00976,2.96138 -2.00976,4.91016 v 76.671871 c 0,1.888329 0.6868,3.59305 1.99218,4.898437 1.30539,1.305387 3.00816,1.990234 4.89649,1.990235 h 20.5 c 6.60174,-10e-7 12.62276,-1.07567 18.03906,-3.242188 h 0.004 l 0.002,-0.002 c 5.47526,-2.236375 10.23844,-5.371256 14.25976,-9.392578 l 0.004,-0.0039 0.002,-0.002 c 4.01964,-4.096932 7.11692,-8.898727 9.27735,-14.376953 l 0.002,-0.0039 v -0.002 c 2.16282,-5.561536 3.23828,-11.654114 3.23828,-18.255864 0,-6.60175 -1.07561,-12.65957 -3.24023,-18.14844 -2.15997,-5.47705 -5.25661,-10.24132 -9.27735,-14.26367 l -0.004,-0.002 c -4.02157,-4.09805 -8.7863,-7.2346 -14.26563,-9.39648 -5.41663,-2.2425 -11.43905,-3.35938 -18.04101,-3.35938 z m 0,2 h 20.5 c 6.38081,0 12.13375,1.07484 17.28515,3.20899 l 0.008,0.004 0.008,0.002 c 5.23787,2.06564 9.75358,5.04129 13.58203,8.94336 l 0.004,0.004 0.004,0.004 c 3.82868,3.82867 6.77076,8.34818 8.83789,13.58984 2.06352,5.23249 3.09961,11.02936 3.09961,17.41406 0,6.3847 -1.03624,12.220416 -3.10156,17.531253 -2.06763,5.241395 -5.01212,9.799768 -8.84375,13.705078 -3.82745,3.825592 -8.34653,6.804076 -13.58594,8.945312 -5.15406,2.061627 -10.91218,3.099609 -17.29687,3.09961 h -20.5 c -1.43378,-10e-7 -2.52273,-0.444606 -3.48242,-1.404297 -0.9597,-0.959691 -1.40625,-2.050591 -1.40625,-3.484375 v -76.671871 c 0,-1.51917 0.44801,-2.59029 1.38085,-3.46094 l 0.0137,-0.0117 0.0117,-0.0117 c 0.95969,-0.95969 2.04864,-1.40625 3.48242,-1.40625 z m 4.89062,8.41992 v 69.613284 h 1 14.60938 c 6.493,0 12.27417,-1.476209 17.27148,-4.44336 l 0.002,-0.002 0.002,-0.002 c 5.05252,-3.031514 9.04036,-7.175182 11.91406,-12.378906 v -0.002 l 0.002,-0.0039 c 2.87917,-5.291444 4.3125,-11.320768 4.3125,-18.031258 0,-6.78438 -1.43129,-12.81625 -4.31445,-18.03711 -2.87472,-5.20557 -6.86646,-9.31487 -11.92383,-12.27148 -4.9961,-2.96507 -10.77489,-4.44141 -17.26562,-4.44141 z m 2,2 h 13.60938 c 6.19142,0 11.58297,1.39301 16.25,4.16407 l 0.004,0.002 0.002,0.002 c 4.75797,2.78158 8.46916,6.59994 11.18164,11.51172 2.70402,4.89648 4.0664,10.56623 4.0664,17.07031 0,6.42464 -1.36033,12.094702 -4.0664,17.070315 -2.7135,4.913623 -6.4286,8.773172 -11.19141,11.630859 -4.66616,2.769562 -10.05633,4.16211 -16.24609,4.16211 h -13.60938 z"
             id="path306" />
        </g>
        <g
           aria-label="D"
           transform="scale(1.000548,0.99945229)"
           id="text28586"
           style="font-size:113.254px;font-family:Comfortaa;-inkscape-font-specification:'Comfortaa, @wght=700';font-variation-settings:'wght' 700;fill:#e02f32;stroke:#d62d30;stroke-width:2;paint-order:stroke fill markers">
          <g
             id="path297">
            <path
               style="color:#000000;-inkscape-font-specification:'Comfortaa, @wght=700';fill:#d62d30;stroke:none;-inkscape-stroke:none"
               d="m -212.08008,-391.16602 c -1.88088,0 -3.57749,0.68314 -4.88086,1.97852 -1.32529,1.24267 -2.00781,2.96138 -2.00781,4.91016 v 76.67187 c 0,1.88833 0.68485,3.59305 1.99023,4.89844 1.30539,1.30539 3.01011,1.99219 4.89844,1.99219 h 20.49805 c 6.60175,0 12.62277,-1.07763 18.03906,-3.24414 h 0.004 l 0.004,-0.002 c 5.47527,-2.23637 10.23845,-5.37125 14.25977,-9.39258 l 0.002,-0.004 0.004,-0.002 c 4.01963,-4.09694 7.11692,-8.89873 9.27734,-14.37696 v -0.002 l 0.002,-0.004 c 2.16282,-5.56153 3.23828,-11.6541 3.23828,-18.25586 0,-6.60174 -1.07561,-12.65956 -3.24024,-18.14843 -2.15996,-5.47706 -5.2566,-10.24132 -9.27734,-14.26368 l -0.004,-0.002 c -4.02156,-4.09804 -8.78824,-7.2346 -14.26758,-9.39648 -5.41662,-2.24251 -11.43905,-3.35743 -18.04101,-3.35743 z m 0,2 h 20.49805 c 6.38082,0 12.13375,1.07288 17.28516,3.20704 l 0.008,0.004 0.008,0.002 c 5.23788,2.06563 9.75554,5.04324 13.58398,8.94531 l 0.004,0.002 0.004,0.004 c 3.82868,3.82868 6.76881,8.34819 8.83593,13.58984 2.06353,5.2325 3.10157,11.02937 3.10157,17.41406 0,6.3847 -1.03819,12.22042 -3.10352,17.53125 -2.06763,5.2414 -5.01017,9.80173 -8.8418,13.70703 -3.82928,3.8272 -8.3512,6.80595 -13.59375,8.94727 -5.15263,2.06014 -10.90863,3.09766 -17.29101,3.09766 h -20.49805 c -1.43378,0 -2.52273,-0.44656 -3.48242,-1.40625 -0.95969,-0.9597 -1.40625,-2.0506 -1.40625,-3.48438 v -76.67187 c 0,-1.51917 0.44801,-2.58833 1.38086,-3.45899 l 0.0117,-0.0117 0.0137,-0.0137 c 0.95969,-0.95969 2.04864,-1.4043 3.48242,-1.4043 z m 4.88867,8.41797 v 69.61328 h 1 14.60938 c 6.49301,0 12.27613,-1.4762 17.27344,-4.44335 l 0.002,-0.002 0.002,-0.002 c 5.05253,-3.03151 9.03841,-7.17518 11.91211,-12.37891 l 0.002,-0.002 0.002,-0.002 c 2.87917,-5.29145 4.31055,-11.32272 4.31055,-18.03321 0,-6.78438 -1.4313,-12.81625 -4.31446,-18.03711 -2.87472,-5.20557 -6.86451,-9.31487 -11.92187,-12.27148 -4.99611,-2.96506 -10.77685,-4.44141 -17.26758,-4.44141 z m 2,2 h 13.60938 c 6.19142,0 11.58492,1.39302 16.25195,4.16407 l 0.004,0.002 0.002,0.002 c 4.75797,2.78159 8.46917,6.59994 11.18164,11.51172 2.70403,4.89649 4.06446,10.56624 4.06446,17.07031 0,6.42697 -1.36034,12.09927 -4.06836,17.07618 -2.7132,4.91063 -6.42672,8.76853 -11.1875,11.625 -4.66617,2.76956 -10.05829,4.1621 -16.24805,4.1621 h -13.60938 z"
               id="path302" />
            <path
               style="color:#000000;-inkscape-font-specification:'Comfortaa, @wght=700';stroke:none;-inkscape-stroke:none"
               d="m -212.08005,-301.71555 q -2.49159,0 -4.1904,-1.69881 -1.69881,-1.69881 -1.69881,-4.19039 v -76.67296 q 0,-2.60484 1.69881,-4.1904 1.69881,-1.69881 4.1904,-1.69881 h 20.49897 q 9.73984,0 17.66762,3.28437 8.04104,3.17111 13.93024,9.17357 5.88921,5.88921 9.06032,13.93024 3.17112,8.04104 3.17112,17.78088 0,9.73985 -3.17112,17.89413 -3.17111,8.04104 -9.06032,14.0435 -5.8892,5.88921 -13.93024,9.17357 -7.92778,3.17111 -17.66762,3.17111 z m 5.8892,-10.41936 h 14.60977 q 9.51333,0 16.76159,-4.30366 7.36151,-4.4169 11.55191,-12.00492 4.1904,-7.70127 4.1904,-17.55437 0,-9.96635 -4.1904,-17.55437 -4.1904,-7.58802 -11.55191,-11.89167 -7.24826,-4.30365 -16.76159,-4.30365 h -14.60977 z"
               id="path304" />
          </g>
        </g>
        <path
           id="path29383"
           style="fill:#ed3235;fill-opacity:1;fill-rule:evenodd;stroke-width:0.338707"
           d="m -205.14516,-389.95333 18.66043,10.76191 c 2.61809,0.35882 5.08835,0.99829 7.41078,1.91826 l -21.987,-12.68017 z m 17.37875,0.14101 33.15156,19.1191 c -0.90124,-1.41916 -1.88563,-2.77271 -2.95358,-4.06004 l -24.97942,-14.40568 c -1.68979,-0.30782 -3.42973,-0.52488 -5.21856,-0.65338 z m -28.18083,1.15588 c -0.15136,0.12478 -0.29907,0.2581 -0.44202,0.40089 -0.37447,0.34912 -0.68079,0.73937 -0.93152,1.16266 l 13.09726,7.55354 h 4.08484 z m -2.14167,8.64723 v 2.3567 l 11.78475,6.7961 v -2.3561 z m 46.73276,7.18713 c 2.02092,1.58518 3.81351,3.40645 5.38192,5.45978 l 16.81775,9.69903 c -0.22407,-0.94547 -0.47473,-1.87651 -0.7558,-2.79147 z m -46.73276,2.69541 v 2.35547 l 11.78475,6.79609 v -2.35485 z m 0,9.88193 v 2.35609 l 11.78475,6.7967 v -2.35609 z m 57.45407,3.48795 c 0.25999,0.89699 0.4879,1.81156 0.67875,2.74774 l 12.11088,6.98393 c -0.0168,-0.81398 -0.0514,-1.61883 -0.10235,-2.41461 z m -57.45407,6.39458 v 2.35548 l 11.78475,6.79671 v -2.35548 z m 58.92131,4.33408 c 3.4e-4,0.0737 0.004,0.14602 0.004,0.21984 0,0.71168 -0.0196,1.41311 -0.0524,2.10793 l 10.76016,6.20553 c 0.11238,-0.72177 0.20905,-1.45164 0.29098,-2.18859 z m -58.92131,5.54785 v 2.35609 l 11.78475,6.79671 v -2.35609 z m 57.92568,3.76076 c -0.16055,0.69117 -0.34131,1.37199 -0.54065,2.04326 l 10.05551,5.79909 c 0.23573,-0.65013 0.45599,-1.30813 0.6621,-1.97306 z m -57.92568,6.12178 v 2.35548 l 11.78475,6.7967 v -2.35547 z m 54.89874,2.01432 c -0.0563,0.10618 -0.10952,0.21402 -0.16708,0.3196 -0.27296,0.49376 -0.55883,0.97478 -0.85198,1.44839 l 9.82371,5.66546 c 0.35571,-0.57767 0.69756,-1.16593 1.02646,-1.76368 z m -5.03115,6.98083 c -0.48708,0.51149 -0.99095,1.00617 -1.51224,1.48349 l 10.06907,5.8071 c 0.48209,-0.5048 0.94986,-1.02036 1.40374,-1.5463 z m -49.86759,0.88739 v 2.35547 l 29.03959,16.74761 c 1.21941,-0.0558 2.41585,-0.15095 3.59041,-0.28512 l -17.45519,-10.06667 h -3.39006 v -1.9552 z m 42.5764,4.78978 c -0.70725,0.3973 -1.42878,0.7679 -2.16756,1.10538 l 10.94817,6.31453 c 0.63443,-0.41136 1.25634,-0.83749 1.86426,-1.28089 z m -10.89023,3.60188 c -1.14873,0.16019 -2.32607,0.26646 -3.53185,0.31837 l 13.91841,8.0271 c 0.67863,-0.23074 1.34747,-0.4778 2.00728,-0.74143 0.15354,-0.0627 0.30445,-0.12869 0.45682,-0.19275 z m -31.68617,1.49088 v 2.35486 l 12.01101,6.92726 h 4.08422 z" />
      </g>
    </g>
  </g>
</svg>
