<?xml version="1.0" encoding="UTF-8" standalone="no"?>
<!-- Created with Inkscape (http://www.inkscape.org/) -->

<svg
   width="256"
   height="256"
   viewBox="0 0 67.733332 67.733333"
   version="1.1"
   id="svg1798"
   inkscape:version="1.2.1 (9c6d41e410, 2022-07-14)"
   inkscape:export-filename="c.png"
   inkscape:export-xdpi="96"
   inkscape:export-ydpi="96"
   sodipodi:docname="ss.svg"
   xmlns:inkscape="http://www.inkscape.org/namespaces/inkscape"
   xmlns:sodipodi="http://sodipodi.sourceforge.net/DTD/sodipodi-0.dtd"
   xmlns="http://www.w3.org/2000/svg"
   xmlns:svg="http://www.w3.org/2000/svg">
  <sodipodi:namedview
     id="namedview1800"
     pagecolor="#ffffff"
     bordercolor="#666666"
     borderopacity="1.0"
     inkscape:showpageshadow="2"
     inkscape:pageopacity="0.0"
     inkscape:pagecheckerboard="0"
     inkscape:deskcolor="#d1d1d1"
     inkscape:document-units="px"
     showgrid="false"
     inkscape:zoom="1.84375"
     inkscape:cx="94.915254"
     inkscape:cy="170.84746"
     inkscape:window-width="1920"
     inkscape:window-height="1009"
     inkscape:window-x="-8"
     inkscape:window-y="-8"
     inkscape:window-maximized="1"
     inkscape:current-layer="layer1" />
  <defs
     id="defs1795">
    <filter
       inkscape:collect="always"
       style="color-interpolation-filters:sRGB"
       id="filter35442"
       x="-0.05209268"
       y="-0.041813601"
       width="1.1041854"
       height="1.0836272">
      <feGaussianBlur
         inkscape:collect="always"
         stdDeviation="1.1533825"
         id="feGaussianBlur35444" />
    </filter>
  </defs>
  <g
     inkscape:label="Layer 1"
     inkscape:groupmode="layer"
     id="layer1">
    <g
       id="g37954"
       transform="matrix(0.50000003,0,0,0.49999518,35.520312,288.12916)"
       inkscape:export-filename="ranking-X.png"
       inkscape:export-xdpi="96"
       inkscape:export-ydpi="96">
      <rect
         style="fill:#0000ff;fill-opacity:0;fill-rule:evenodd;stroke-width:0.208134"
         id="rect37168"
         width="135.46666"
         height="135.46666"
         x="-71.040619"
         y="-576.26257" />
      <g
         id="g36919"
         transform="matrix(0.77201276,0,0,0.73497937,0.10915096,-153.07587)">
        <g
           aria-label="X"
           transform="matrix(2.5692822,0,0,2.5692822,53.170204,330.67454)"
           id="text35440"
           style="font-size:82.2038px;font-family:Comfortaa;-inkscape-font-specification:'Comfortaa, @wght=700';font-variation-settings:'wght' 700;fill:none;stroke:#d6c000;stroke-width:2;paint-order:stroke markers fill;filter:url(#filter35442)">
          <path
             style="color:#000000;-inkscape-font-specification:'Comfortaa, @wght=700';fill:#d6c000;stroke:none;-inkscape-stroke:none"
             d="m -42.806641,-350.03711 c -1.373073,0 -2.632214,0.50672 -3.527343,1.4707 l -0.01367,0.0156 -0.01367,0.0137 c -0.785236,0.91611 -1.25604,2.03688 -1.384766,3.25977 -0.134461,1.27739 0.227995,2.53185 1.015625,3.58203 l 17.617188,24.4414 -18.685547,24.91407 c -0.77763,1.03684 -1.1875,2.26254 -1.1875,3.55859 0,1.25177 0.420738,2.43705 1.207031,3.41992 l 0.0098,0.0137 0.01172,0.0117 c 0.863075,1.00692 2.173363,1.5 3.636718,1.5 1.388947,0 2.678988,-0.53836 3.666016,-1.52539 l 0.04883,-0.0508 18.097656,-24.07812 17.0937503,23.69726 0.015625,0.0195 c 0.5019049,0.62739 1.0626909,1.13205 1.6933593,1.48242 l 0.054687,0.0312 0.060547,0.0234 c 0.6867612,0.2747 1.4467242,0.40039 2.2617188,0.40039 1.41059711,0 2.6849378,-0.50179 3.5390625,-1.48828 0.8561512,-0.92953 1.3396498,-2.11332 1.4042968,-3.40625 0.065429,-1.30859 -0.3159324,-2.56187 -1.1015625,-3.60937 l -17.9726562,-24.95703 18.3183594,-24.42188 0.013672,-0.0215 c 0.7548206,-1.13224 1.1389739,-2.38294 1.0722656,-3.65039 -0.065208,-1.23895 -0.5210514,-2.37519 -1.3339843,-3.25586 -0.8548291,-0.92607 -2.09006452,-1.39063 -3.44726565,-1.39063 -1.47784685,0 -2.81786785,0.52906 -3.77148435,1.55078 l -0.037109,0.0391 -17.6367187,23.46485 -16.875,-23.4082 -0.002,-0.004 c -0.825017,-1.12502 -2.230486,-1.64258 -3.847657,-1.64258 z m 0,2 c 1.232559,0 1.853738,0.30517 2.234375,0.82422 l 17.226563,23.90039 -3.677734,3.27148 -0.832032,1.10938 -17.269531,-23.95703 -0.0059,-0.008 c -0.52763,-0.70351 -0.711702,-1.36676 -0.626953,-2.17188 0.08991,-0.85416 0.386437,-1.53701 0.910156,-2.15234 0.525067,-0.55599 1.123781,-0.81641 2.041015,-0.81641 z m 42.16992225,0 c 0.94450289,0 1.51808533,0.24925 1.97851565,0.74805 0.5023265,0.54418 0.7602903,1.16036 0.8046875,2.0039 0.042824,0.81366 -0.177986,1.59262 -0.7363282,2.43164 l -17.8945312,23.85743 -1.173828,-1.63086 -3.123047,-2.54883 -0.07617,-0.10742 17.9238282,-23.84766 c 0.5782713,-0.61341 1.2611017,-0.90625 2.29687505,-0.90625 z m -21.50585925,26.33203 3.015625,2.46094 1.386719,1.92383 -0.732422,0.97656 -3.535156,3.12305 -0.269532,0.35742 -0.55664,-0.77149 -3.041016,-2.54882 -0.755859,-1.04883 1.085937,-1.44727 z m 5.625,6.08594 17.6230467,24.4707 0.00586,0.008 c 0.5296295,0.70617 0.751207,1.42507 0.7070313,2.30859 -0.044591,0.89181 -0.3251998,1.5634 -0.88476565,2.16601 l -0.0136719,0.0137 -0.0136719,0.0156 c -0.46111608,0.53797 -1.04162221,0.80078 -2.03515625,0.80078 -0.5831822,0 -1.0541091,-0.0935 -1.4531251,-0.24414 -0.3409958,-0.19844 -0.6927571,-0.49272 -1.0507812,-0.93945 -0.00107,-0.001 -0.00284,-6.2e-4 -0.00391,-0.002 l -17.414062,-24.14258 0.519531,-0.69141 3.535156,-3.125 z m -11.371094,0.0645 0.53711,0.74414 3.042968,2.54688 0.775391,1.07422 -18.367188,24.43554 c -0.647927,0.63603 -1.321727,0.91797 -2.220703,0.91797 -1.046661,0 -1.650827,-0.27212 -2.101562,-0.78906 -0.522146,-0.65735 -0.763672,-1.33065 -0.763672,-2.15625 0,-0.89605 0.24948,-1.64254 0.787109,-2.35937 z"
             id="path13865" />
        </g>
        <g
           aria-label="X"
           id="text52381"
           style="font-size:211.205px;font-family:Comfortaa;-inkscape-font-specification:'Comfortaa, @wght=700';font-variation-settings:'wght' 700;fill:#ffe936;stroke:#d6c000;stroke-width:5.13856;paint-order:stroke markers fill">
          <g
             id="path13856">
            <path
               style="color:#000000;-inkscape-font-specification:'Comfortaa, @wght=700';fill:#d6c000;stroke:none;-inkscape-stroke:none"
               d="m -56.8125,-568.66797 c -3.527818,0 -6.762661,1.30059 -9.0625,3.77735 l -0.03516,0.0371 -0.0332,0.0391 c -2.017495,2.35374 -3.231768,5.23108 -3.5625,8.37304 -0.345471,3.28197 0.589637,6.50494 2.613281,9.20313 l 45.263672,62.79297 -48.009766,64.01367 c -1.997951,2.66393 -3.048828,5.81656 -3.048828,9.14648 0,3.21616 1.077447,6.25989 3.097656,8.78516 l 0.02734,0.0332 0.02734,0.0332 c 2.217486,2.58706 5.583974,3.85546 9.34375,3.85547 3.5686,-10e-6 6.883965,-1.38592 9.419922,-3.92188 l 0.128906,-0.12695 46.4941405,-61.86719 43.9218745,60.88867 0.04102,0.0488 c 1.289536,1.61192 2.729246,2.91034 4.349609,3.81055 l 0.140625,0.0781 0.152344,0.0606 c 1.764488,0.70579 3.718543,1.0293 5.8125,1.0293 3.619449,0 6.889534,-1.28458 9.083985,-3.8125 2.206071,-2.38987 3.452788,-5.44054 3.61914,-8.76758 0.168077,-3.36154 -0.816201,-6.58044 -2.833984,-9.27149 l -46.171875,-64.11914 47.060547,-62.74609 0.03906,-0.0605 c 1.939349,-2.90902 2.921392,-6.11855 2.75,-9.375 -0.167537,-3.18321 -1.333216,-6.10252 -3.421875,-8.36523 -2.196298,-2.37933 -5.372338,-3.57227 -8.859375,-3.57227 -3.797013,0 -7.241296,1.35925 -9.691406,3.98438 l -0.09375,0.0996 -45.3164063,60.29101 -43.3535157,-60.14844 -0.0059,-0.01 c -2.119699,-2.8905 -5.731743,-4.2168 -9.886719,-4.2168 z m 0,5.13867 c 3.16679,0 4.764216,0.78359 5.742188,2.11719 l 44.2617183,61.4082 -9.4511723,8.40039 -2.138671,2.85157 -44.369141,-61.55078 -0.01563,-0.0195 c -1.355633,-1.80751 -1.829071,-3.51348 -1.611328,-5.58203 0.230242,-2.1873 0.983142,-3.94066 2.320312,-5.51757 1.352943,-1.44055 2.895555,-2.10743 5.261719,-2.10743 z m 108.347656,0 c 2.426698,0 3.899053,0.63641 5.082031,1.91797 1.290619,1.39817 1.954291,2.98503 2.06836,5.15235 0.109843,2.08702 -0.455551,4.08087 -1.884766,6.23242 l -45.980468,61.30664 -3.0175786,-4.18945 -8.02734378,-6.54688 -0.1953125,-0.27148 46.05859388,-61.27735 c 1.485051,-1.57365 3.237258,-2.32422 5.896484,-2.32422 z m -55.2519529,67.65235 7.7460938,6.32031 3.5605468,4.94531 -1.8828125,2.50977 -9.0800781,8.02539 -0.6894531,0.91797 -1.4316406,-1.98438 -7.8144534,-6.54883 -1.941406,-2.69336 2.791016,-3.7207 z m 14.4531249,15.63476 45.277344,62.875 0.01367,0.0195 c 1.360771,1.81436 1.926,3.6636 1.8125,5.9336 -0.114567,2.29133 -0.835758,4.01227 -2.273438,5.56054 l -0.0332,0.0371 -0.03516,0.0391 c -1.184741,1.38219 -2.675844,2.06054 -5.228516,2.06054 -1.49946,0 -2.710707,-0.24525 -3.736328,-0.63281 -0.872784,-0.50896 -1.777174,-1.26247 -2.693359,-2.4043 l -44.75585963,-62.04101 1.33593751,-1.77735 9.08398442,-8.02539 z m -29.216797,0.16602 1.378907,1.91211 7.8144526,6.54687 1.9921875,2.75977 -47.1777341,62.77148 c -1.668185,1.64211 -3.403755,2.36914 -5.71875,2.36914 -2.699835,0 -4.254574,-0.7025 -5.414063,-2.04101 -1.332782,-1.68394 -1.943359,-3.41276 -1.943359,-5.52735 0,-2.3022 0.640159,-4.22073 2.021484,-6.0625 z"
               id="path13861" />
            <path
               style="color:#000000;-inkscape-font-specification:'Comfortaa, @wght=700';stroke:none;-inkscape-stroke:none"
               d="m -60.191444,-401.14804 q -4.857715,0 -7.392175,-2.95687 -2.53446,-3.16808 -2.53446,-7.18097 0,-4.2241 2.53446,-7.60338 l 53.22366,-70.96488 9.5042252,-8.4482 48.5771508,-64.62873 q 2.95687,-3.16808 7.814585,-3.16808 4.435305,0 6.969765,2.74567 2.53446,2.74566 2.745665,6.75856 0.211205,4.01289 -2.323255,7.81458 l -51.3228157,68.43042 -9.0818151,8.02579 -51.1116102,68.00801 q -3.168075,3.16808 -7.60338,3.16808 z m 110.460216,0 q -2.745665,0 -4.857715,-0.84482 -1.900845,-1.05603 -3.590485,-3.16808 l -49.2107658,-68.21921 -7.8145852,-6.54736 -49.633175,-68.85283 q -2.53446,-3.37928 -2.11205,-7.39217 0.42241,-4.0129 2.95687,-6.96977 2.745665,-2.95687 7.18097,-2.95687 5.49133,0 7.814585,3.16808 l 46.8875102,65.05114 8.0257901,6.54735 52.1676357,72.44332 q 2.53446,3.37928 2.323255,7.60338 -0.211205,4.2241 -2.95687,7.18097 -2.53446,2.95687 -7.18097,2.95687 z"
               id="path13863" />
          </g>
        </g>
        <path
           id="path52383"
           style="fill:#ffef6e;fill-opacity:1;fill-rule:evenodd;stroke-width:1.03987"
           d="m -56.81255,-566.09961 c -1.908128,0 -3.57752,0.41658 -5.016575,1.23749 l 19.59512,11.3135 -5.76064,-7.99134 -7.831069,-4.52155 c -0.322959,-0.018 -0.645558,-0.038 -0.986836,-0.038 z m 103.999586,0.78057 c -1.316089,0.52796 -2.4726,1.32279 -3.466553,2.38771 l -0.145935,0.19527 17.239139,9.95227 c 0.355717,-1.25417 0.505609,-2.52409 0.437883,-3.81084 -0.01285,-0.21633 -0.03571,-0.42545 -0.05704,-0.63618 z m -113.92963,12.53193 c 0.326555,1.40178 0.952869,2.73958 1.903838,4.00754 l 2.17035,3.01123 44.600273,25.75081 -5.759046,-7.99289 z m 102.501925,0.44739 -2.446419,3.25554 18.033972,10.41232 2.443259,-3.2571 z m -10.26161,13.65204 -2.446419,3.25553 18.04985,10.42027 2.443233,-3.25554 z m -10.26161,13.65357 -2.446419,3.25395 18.065702,10.42977 2.44164,-3.25554 z m -59.489752,4.80872 5.760665,7.99291 50.248274,29.00954 -0.977303,-1.35651 2.027549,-2.7034 z m 49.228141,8.84486 -2.446444,3.25397 18.081606,10.4393 2.44164,-3.25713 z m -25.054355,24.68785 1.640486,2.27666 -1.746778,2.32901 56.072401,32.37298 -5.752726,-7.98656 z m -7.910358,15.01167 -2.441666,3.25554 18.149795,10.47897 2.4463937,-3.25397 z m -10.245784,13.66154 -2.44164,3.25554 18.135536,10.47101 2.4448,-3.25395 z m 47.648007,7.93258 5.768553,7.99605 44.286152,25.56836 c -0.360907,-0.81949 -0.816415,-1.61101 -1.383456,-2.36708 l -3.817157,-5.30055 z m -57.895332,5.72891 -2.441666,3.25554 18.12125,10.46309 2.444852,-3.25394 z m -10.244165,13.66154 -2.443233,3.25714 18.105372,10.45358 2.446419,-3.25554 z m -10.066474,13.76465 c -0.630167,1.24734 -1.032877,2.56969 -1.210517,3.9679 l 16.456998,9.50167 c 0.32784,-0.26431 0.650157,-0.54387 0.959832,-0.85357 l 1.708702,-2.27348 z m 102.408327,0.39503 5.768578,7.99766 12.592206,7.26945 c 1.841636,-0.24794 3.390605,-0.90593 4.634241,-1.99109 z" />
      </g>
    </g>
  </g>
</svg>
