<?xml version="1.0" encoding="UTF-8" standalone="no"?>
<!-- Created with Inkscape (http://www.inkscape.org/) -->

<svg
   width="256"
   height="256"
   viewBox="0 0 67.733332 67.733333"
   version="1.1"
   id="svg1798"
   inkscape:version="1.2.1 (9c6d41e410, 2022-07-14)"
   inkscape:export-filename="c.png"
   inkscape:export-xdpi="96"
   inkscape:export-ydpi="96"
   sodipodi:docname="ss_plus.svg"
   xmlns:inkscape="http://www.inkscape.org/namespaces/inkscape"
   xmlns:sodipodi="http://sodipodi.sourceforge.net/DTD/sodipodi-0.dtd"
   xmlns="http://www.w3.org/2000/svg"
   xmlns:svg="http://www.w3.org/2000/svg">
  <sodipodi:namedview
     id="namedview1800"
     pagecolor="#ffffff"
     bordercolor="#666666"
     borderopacity="1.0"
     inkscape:showpageshadow="2"
     inkscape:pageopacity="0.0"
     inkscape:pagecheckerboard="0"
     inkscape:deskcolor="#d1d1d1"
     inkscape:document-units="px"
     showgrid="false"
     inkscape:zoom="1.3037281"
     inkscape:cx="7.670311"
     inkscape:cy="177.18418"
     inkscape:window-width="1920"
     inkscape:window-height="1009"
     inkscape:window-x="-8"
     inkscape:window-y="-8"
     inkscape:window-maximized="1"
     inkscape:current-layer="layer1" />
  <defs
     id="defs1795">
    <filter
       inkscape:collect="always"
       style="color-interpolation-filters:sRGB"
       id="filter32839"
       x="-0.052094563"
       y="-0.041813645"
       width="1.1041891"
       height="1.0836273">
      <feGaussianBlur
         inkscape:collect="always"
         stdDeviation="1.1533825"
         id="feGaussianBlur32841" />
    </filter>
  </defs>
  <g
     inkscape:label="Layer 1"
     inkscape:groupmode="layer"
     id="layer1">
    <g
       id="g37938"
       transform="matrix(0.50000003,0,0,0.49999632,-56.662777,308.82616)"
       inkscape:export-filename="ranking-XH.png"
       inkscape:export-xdpi="96"
       inkscape:export-ydpi="96">
      <rect
         style="fill:#0000ff;fill-opacity:0;fill-rule:evenodd;stroke-width:0.208135"
         id="rect37922"
         width="135.46666"
         height="135.46767"
         x="113.32555"
         y="-617.65686" />
      <path
         style="color:#000000;font-size:82.2038px;font-family:Comfortaa;-inkscape-font-specification:'Comfortaa, @wght=700';font-variation-settings:'wght' 700;fill:#bababa;stroke:none;stroke-width:2;-inkscape-stroke:none;paint-order:stroke markers fill;filter:url(#filter32839)"
         d="m -51.380859,-230.9043 c -1.373076,0 -2.632217,0.50672 -3.527344,1.47071 l -0.01367,0.0137 -0.01172,0.0156 c -0.785236,0.91611 -1.257993,2.03493 -1.386718,3.25782 -0.134462,1.27738 0.229949,2.53185 1.017578,3.58203 l 17.617187,24.4414 -18.6875,24.91407 c -0.777629,1.03684 -1.185547,2.26449 -1.185547,3.56054 0,1.25177 0.418785,2.43511 1.205078,3.41797 l 0.01172,0.0137 0.0098,0.0137 c 0.863075,1.00692 2.173362,1.5 3.636719,1.5 1.388947,-1e-5 2.678987,-0.54032 3.666015,-1.52735 l 0.05078,-0.0488 18.095704,-24.07812 17.095703,23.69726 0.01563,0.0195 c 0.501904,0.62737 1.062694,1.13205 1.693359,1.48242 l 0.05469,0.0312 0.05859,0.0234 c 0.686764,0.27471 1.446721,0.4004 2.261719,0.4004 1.4105949,0 2.6849391,-0.5018 3.5390625,-1.48829 0.8561584,-0.92952 1.3416028,-2.11526 1.40625,-3.4082 0.065429,-1.30859 -0.3178857,-2.56187 -1.1035156,-3.60937 l -17.9707029,-24.95508 18.316406,-24.42188 0.015625,-0.0234 c 0.7548224,-1.13223 1.1370206,-2.38099 1.0703125,-3.64844 -0.065208,-1.23895 -0.5190983,-2.37518 -1.3320312,-3.25586 -0.8548291,-0.92607 -2.0900646,-1.39063 -3.4472657,-1.39063 -1.4778486,0 -2.8198216,0.52905 -3.7734376,1.55078 l -0.03516,0.0391 -17.638672,23.46679 -16.873047,-23.41211 -0.002,-0.004 c -0.825015,-1.12503 -2.232437,-1.64063 -3.849609,-1.64063 z m 0,2 c 1.232555,0 1.855688,0.30517 2.236328,0.82422 l 17.226562,23.90039 -3.677734,3.26953 -0.832031,1.10938 -17.269532,-23.95508 -0.0059,-0.008 c -0.52763,-0.70351 -0.713654,-1.36677 -0.628906,-2.17188 0.08984,-0.85351 0.387191,-1.53737 0.910156,-2.15234 0.525545,-0.55747 1.122614,-0.81641 2.041016,-0.81641 z m 42.1718746,0 c 0.9445029,0 1.5161322,0.2473 1.9765625,0.7461 0.5023266,0.54418 0.7622435,1.16231 0.8066407,2.00586 0.042793,0.81307 -0.1788993,1.58942 -0.7363282,2.42773 l -17.8945316,23.85938 -1.173828,-1.63086 -3.125,-2.54883 -0.07617,-0.10352 17.929688,-23.85351 c 0.577606,-0.61113 1.259081,-0.90235 2.2929686,-0.90235 z m -21.5058596,26.33203 3.015625,2.45899 1.386719,1.92383 -0.734375,0.97851 -3.533203,3.12305 -0.267578,0.35742 -0.558594,-0.77344 -3.041016,-2.54882 -0.755859,-1.04883 1.085938,-1.44727 z m 5.626953,6.08399 17.6210941,24.47266 0.00586,0.008 c 0.5296294,0.70617 0.7492539,1.42507 0.7050781,2.30859 -0.044591,0.89181 -0.325202,1.56146 -0.8847656,2.16406 l -0.013672,0.0156 -0.011719,0.0137 c -0.4611173,0.53797 -1.0435772,0.80274 -2.0371094,0.80274 -0.5831852,0 -1.0541092,-0.0955 -1.4531252,-0.2461 -0.341418,-0.19908 -0.694307,-0.49337 -1.052734,-0.9414 l -17.414063,-24.14258 0.519531,-0.69141 3.535157,-3.12305 z m -11.373046,0.0644 0.537109,0.74414 3.041016,2.54883 0.77539,1.07422 -18.359375,24.42773 c -0.650258,0.64138 -1.326006,0.92578 -2.228515,0.92579 -1.047489,0 -1.650715,-0.27327 -2.101563,-0.79102 -0.52095,-0.65666 -0.761719,-1.3296 -0.761719,-2.1543 0,-0.89605 0.249481,-1.64253 0.78711,-2.35937 z"
         id="path13704"
         transform="matrix(-1.9826243,0,0,1.8883687,119.61684,-176.39633)" />
      <g
         id="path13692"
         style="font-size:159.057px;font-family:Comfortaa;-inkscape-font-specification:'Comfortaa, @wght=700';font-variation-settings:'wght' 700;fill:#ddd9d9;stroke:#bababa;stroke-width:3.86984;paint-order:stroke markers fill"
         transform="matrix(-1.024653,0,0,0.97594016,-6.4072083e-8,2.531754e-5)">
        <path
           style="color:#000000;-inkscape-font-specification:'Comfortaa, @wght=700';display:inline;fill:#bababa;stroke:none;-inkscape-stroke:none"
           d="m -216.1543,-627.52734 c -2.65677,0 -5.09417,0.98047 -6.82617,2.8457 l -0.0273,0.0273 -0.0254,0.0293 c -1.51937,1.77259 -2.43257,3.94045 -2.68164,6.30664 -0.26018,2.47163 0.44279,4.8977 1.96679,6.92969 l 34.08985,47.29101 -36.15625,48.20704 c -1.50465,2.00619 -2.29688,4.37897 -2.29688,6.88671 0,2.42207 0.81257,4.71543 2.33399,6.61719 l 0.0195,0.0254 0.0215,0.0254 c 1.66997,1.94831 4.20565,2.90235 7.03711,2.90235 2.68749,0 5.18394,-1.04331 7.09375,-2.95313 l 0.0957,-0.0957 35.01563,-46.58985 33.07812,45.85352 0.0293,0.0371 c 0.97114,1.21393 2.0551,2.18925 3.27539,2.86719 l 0.10742,0.0605 0.11329,0.0449 c 1.32882,0.53153 2.8,0.77539 4.37695,0.77539 2.73091,0 5.19694,-0.97192 6.84961,-2.88282 1.65528,-1.79822 2.59372,-4.08917 2.71875,-6.58984 0.12653,-2.53051 -0.61451,-4.95436 -2.13281,-6.98047 l -34.77344,-48.28906 35.43945,-47.25586 0.0293,-0.0449 c 1.46051,-2.19077 2.20134,-4.60814 2.07226,-7.06055 -0.12617,-2.39725 -1.00517,-4.59479 -2.57812,-6.29883 -1.65402,-1.79186 -4.04386,-2.6914 -6.66992,-2.6914 -2.85951,0 -5.45562,1.02303 -7.30078,3 l -0.0703,0.0762 -34.12695,45.4043 -32.64844,-45.29688 -0.004,-0.008 c -1.59633,-2.17683 -4.31623,-3.17578 -7.44532,-3.17578 z m 0,3.86914 c 2.38321,0 3.58563,0.59072 4.32227,1.59375 5.2e-4,7e-4 0.001,10e-4 0.002,0.002 l 33.33203,46.24609 -7.11718,6.32618 -1.61133,2.14648 -33.41406,-46.35156 -0.0117,-0.0156 c -1.02092,-1.36122 -1.37688,-2.64531 -1.21289,-4.20312 0.17338,-1.64715 0.74113,-2.96678 1.74804,-4.1543 1.01908,-1.08546 2.18049,-1.58984 3.96289,-1.58984 z m 81.59571,0 c 1.82752,0 2.93528,0.48018 3.82617,1.44531 0.97195,1.05295 1.47269,2.24867 1.55859,3.88086 0.0828,1.57258 -0.34422,3.07397 -1.42187,4.69531 l -34.62696,46.16992 -2.27148,-3.15625 -6.04492,-4.93164 -0.14844,-0.20508 34.69141,-46.15039 c 1.11765,-1.1826 2.43692,-1.74804 4.4375,-1.74804 z m -41.61133,50.95117 5.83398,4.75976 2.68164,3.72266 -1.41797,1.89063 -6.83789,6.04296 -0.51953,0.69141 -1.07812,-1.49414 -5.88477,-4.93164 -1.46289,-2.0293 2.10156,-2.80078 z m 10.88476,11.77344 34.09766,47.34961 0.0117,0.0156 c 1.02478,1.36638 1.45071,2.75923 1.36523,4.46875 -0.0863,1.72558 -0.63018,3.02151 -1.71289,4.1875 l -0.0254,0.0273 -0.0254,0.0293 c -0.89222,1.04092 -2.01706,1.55274 -3.93945,1.55274 -1.12831,0 -2.03853,-0.18514 -2.81055,-0.47657 -0.65788,-0.38322 -1.3406,-0.94984 -2.03125,-1.81054 l -33.70312,-46.72266 1.00586,-1.33789 6.83984,-6.04492 z m -22.0039,0.125 1.03906,1.43945 5.88672,4.93164 1.49805,2.07813 -35.5293,47.27343 c -1.2558,1.23553 -2.56203,1.78321 -4.30469,1.78321 -2.03117,0 -3.20324,-0.52913 -4.07617,-1.53516 -1.00541,-1.26913 -1.46484,-2.57226 -1.46484,-4.16602 0,-1.73377 0.48121,-3.17743 1.52148,-4.56445 z"
           id="path13697" />
        <path
           style="color:#000000;-inkscape-font-specification:'Comfortaa, @wght=700';display:inline;stroke:none;-inkscape-stroke:none"
           d="m -218.70015,-501.36868 q -3.65831,0 -5.56699,-2.2268 -1.90869,-2.38586 -1.90869,-5.40794 0,-3.18114 1.90869,-5.72605 l 40.08236,-53.44316 7.15757,-6.36228 36.58311,-48.67144 q 2.2268,-2.38586 5.88511,-2.38586 3.3402,0 5.24888,2.06775 1.90868,2.06774 2.06774,5.08982 0.15906,3.02208 -1.74963,5.88511 l -38.65085,51.53447 -6.83945,6.04417 -38.4918,51.21635 q -2.38585,2.38586 -5.72605,2.38586 z m 83.18682,0 q -2.06774,0 -3.65831,-0.63623 -1.43152,-0.79529 -2.70397,-2.38586 l -37.06029,-51.37541 -5.88511,-4.93077 -37.37839,-51.85258 q -1.90869,-2.54491 -1.59057,-5.567 0.31811,-3.02208 2.2268,-5.24888 2.06774,-2.2268 5.40793,-2.2268 4.13549,0 5.88511,2.38586 l 35.31066,48.98956 6.04417,4.93077 39.28708,54.55655 q 1.90868,2.54491 1.74962,5.72605 -0.15905,3.18114 -2.22679,5.40794 -1.90869,2.2268 -5.40794,2.2268 z"
           id="path13699" />
      </g>
      <path
         id="path14891-3"
         style="fill:#e3e1e1;fill-opacity:1;fill-rule:evenodd;stroke-width:0.78312"
         d="m 221.48424,-610.5418 c 1.47244,0 2.76065,0.30618 3.87111,0.90953 l -15.12086,8.31519 4.44528,-5.87348 6.04296,-3.32324 c 0.24922,-0.0132 0.49816,-0.0279 0.76151,-0.0279 z m -80.25281,0.5737 c 1.01559,0.38804 1.90802,0.97223 2.67502,1.75491 l 0.11262,0.14353 -13.30284,7.3147 c -0.27449,-0.92178 -0.39016,-1.85515 -0.3379,-2.80088 0.009,-0.159 0.0276,-0.3127 0.044,-0.46757 z m 87.91548,9.21071 c -0.252,1.03027 -0.7353,2.01352 -1.46913,2.94546 l -1.67477,2.21318 -34.41646,18.92631 4.44405,-5.8746 z m -79.09711,0.32882 1.88781,2.39275 -13.91618,7.65284 -1.88538,-2.39391 z m 7.91851,10.03396 1.88781,2.39275 -13.92843,7.65868 -1.88534,-2.39275 z m 7.91853,10.03509 1.88781,2.39159 -13.94066,7.66565 -1.88413,-2.39275 z m 45.90613,3.53432 -4.4453,5.87462 -38.77482,21.3214 0.75416,-0.99701 -1.56459,-1.98694 z m -37.98761,6.50078 1.88783,2.3916 -13.95293,7.67266 -1.88414,-2.39392 z m 19.33357,18.14505 -1.26592,1.6733 1.34794,1.71177 -43.2691,23.79347 4.43918,-5.86996 z m 6.10413,11.03326 1.88415,2.39276 -14.00555,7.70182 -1.8878,-2.39159 z m 7.90632,10.04095 1.88412,2.39276 -13.99455,7.69597 -1.88657,-2.39158 z m -36.76829,5.83029 -4.4514,5.87692 -34.17404,18.79222 c 0.27848,-0.60232 0.62999,-1.18407 1.06756,-1.73977 l 2.94556,-3.89579 z m 44.67579,4.21063 1.88414,2.39274 -13.98353,7.69016 -1.8866,-2.39158 z m 7.90506,10.04095 1.88535,2.39391 -13.97127,7.68317 -1.88781,-2.39275 z m 7.76793,10.11672 c 0.48629,0.91676 0.79704,1.88867 0.93411,2.91632 l -12.69928,6.98353 c -0.25298,-0.19426 -0.50171,-0.39973 -0.74066,-0.62735 l -1.31855,-1.67097 z m -79.02488,0.29034 -4.45142,5.87811 -9.71695,5.3429 c -1.42113,-0.18223 -2.61642,-0.66584 -3.57608,-1.46342 z" />
    </g>
  </g>
</svg>
